<?xml version="1.0" encoding="utf-8"?>
<!-- Generator: Adobe Illustrator 22.0.1, SVG Export Plug-In . SVG Version: 6.00 Build 0)  -->
<svg version="1.1" id="Layer_1" xmlns="http://www.w3.org/2000/svg" xmlns:xlink="http://www.w3.org/1999/xlink" x="0px" y="0px"
	 viewBox="0 0 535.9 163.7" style="enable-background:new 0 0 535.9 163.7;" xml:space="preserve">
<style type="text/css">
	.st0{fill:#005498;}
	.st1{fill:#1F447C;}
	.st2{fill:#78BDE0;}
	.st3{fill:#4394C8;}
	.st4{fill:#F26C24;}
	.st5{fill:#EE4722;}
	.st6{fill:#FBDD00;}
	.st7{fill:#FAAD1A;}
	.st8{fill:#FFFFFF;}
</style>
<polygon class="st0" points="7.2,29.6 44.8,23.3 44.6,66.9 0.9,66.9 "/>
<polygon class="st1" points="5.4,40.4 33.3,36.5 33.3,61.5 1.8,61.5 "/>
<polygon class="st2" points="44.8,23.3 82.3,29.6 88.6,66.9 44.6,66.9 "/>
<polygon class="st3" points="44.8,23.3 70.6,27.7 77.1,66.9 44.6,66.9 "/>
<polygon class="st4" points="44.6,66.9 44.6,124.2 7.1,104.7 0.9,66.9 "/>
<polygon class="st5" points="13.5,72.8 44.6,72.8 44.6,110.3 17.1,97.6 "/>
<polygon class="st6" points="44.6,66.9 88.6,66.9 82.3,104.8 44.6,124.2 "/>
<polygon class="st7" points="44.6,66.9 77.1,66.9 70.5,110.9 44.6,124.2 "/>
<path class="st8" d="M29.7,43h-8.4v13.2h7.8c0,0,6.1-0.1,6.9-5.3v-2.5C36,48.5,36.4,43.6,29.7,43z M32,50.6c0,0-0.1,1.7-2.9,2.4
	l-0.4,0.1h-3.4v-7h3.9c0,0,2.7,0.3,2.9,2.5V50.6z"/>
<path class="st8" d="M62.3,43h-8.8l0,17.1c0,0,3.3,0,3.8-3.2v-1l5,0c0,0,4.4,0,5.6-4.1l0.1-0.6l0.1-0.3l0.1-2.7
	C68.2,48.3,68.3,43.6,62.3,43z M64.1,50.5C63.8,52.5,61,53,61,53h-3.5v-6.8H61c2.3,0.1,2.9,1.6,2.9,1.6
	C64.4,48.6,64.1,50.5,64.1,50.5z"/>
<path class="st8" d="M21.9,77.1v3.1h7.3c0,0,2.7,0.1,3,2.4c0,0,0.4,2.4-2.1,2.9h-5.3c0,0-3.3,0.5-3.4,3.6v5.3H36v-0.9
	c0,0-0.5-2.2-3.2-2.3l-7.6,0l0-1.1c0,0,0.2-1.4,1.6-1.5l2.4-0.1c0,0,4.4,0,5.8-2.3c0,0,0.8-1,0.9-2.7v-1.8c0,0,0-2-2.3-3.5
	c0,0-1.4-1.2-5.3-1.2H21.9z"/>
<path class="st8" d="M59,77.9l-2.7,3.3H59v13.2c0,0,3,0.1,3.8-3.3l-0.1-13.2H59z"/>
<path class="st8" d="M117.5,61.7l-0.1,0.8h0.2l0.1,1.3l0.2,0.5l0.3,0.4l0.2,0.1l0.1,0.8v0.7l0.1,0.3l0.5,0.7l0.3,0.3l0.1,0.7h0.3
	l0.3,0.1l0.2,0.2l0.1,0.3v0.5l0.2,0.2l0.4,0.3l0.2,0.4h0.2l0.2,1.1h0.6l0.4,0.2l0.6,0.2l0.1,0.3h0.4v0.5l0.4,0.4l0.4,0.2l0.1,0.2
	h0.4l0.1-0.4l0.2-0.2l0.1-0.3l0.2-0.3l0.2,0.1L126,73l1.1,0.4l0.6,0.2h0.2v0.6l-0.2,0.3l0.2,0.1l0.3-0.3l0.4,0l0.3-0.2l0.4,0v-0.1
	l1.4-0.1l0.4,0.4l0.3,0.1l0.5,0.2l0.1-0.4l0.5-0.1l0.6-0.1l0.1-0.2l2.3,0l0.5-0.1l0.9-0.5l0.7-0.4l0.3-0.2l1.4-0.1l0.4-0.3l0.1-0.8
	l0.2,0l0.6,0l0.6-0.5l0.3-0.5l0.1-0.3l0.7,0.1l0,0.5l-0.1,0.2l-0.2,0.5l-0.1,0.3l-0.2,0.4l-0.5,0.9l-0.2,0.7l-0.2,0.9l-0.6,0.7
	l-0.2,0.5l0,0.8l-0.2,0.3l0,0.5l-0.2,0.3l-0.5,1.1l-0.2,1l-0.3,0.1l0,0.8l-0.1,0.3l-0.2,1.3l-0.1,0l-0.1,1.3l-0.1,0l-0.3,0.9
	l-0.4,0.6l-0.1,0.6l-0.2,0l0,0.6l0.3,0.1l0,0.3h-0.1l-0.1,0.8l-0.2,0.1l0,0.3l-0.2,0.5l-0.1,1.2l-0.2,0.1l-0.2,1.3l-0.1,0.1
	l-0.3,1.6l0.1,1.9l-0.1,0.2l-0.2,2.2l-0.2,0.1l0,1.9l0.2,0l0.1,1.7c0.1,3.9,3.8,7.5,3.8,7.5l1.4,0.1v0.1l0.3,0.6l1.1,0.1l1,0.1
	l0,0.1l0.5,0.1l0.7,0.2l0.3,0.2l0.4,0l0.3,0.1l1,0.1l0.2,0.1l2.2-0.1c1.4-0.5,4.1-2.7,4.1-2.7l0.3-0.1l0.5-0.1l0.1-0.8l0.1,0
	l0.2-0.4l0.3-0.3l1.5-0.2l0.1-0.3l-0.6-0.1l0-0.4l0.4,0l0.2-0.2l0.1-0.1l1.9-2.7l2.4-2.6l1.3-1.4l0.5-0.4l0.6-0.8l1.7-2.4l0.4-0.8
	l0.4-0.6l-0.1-0.9l0.6-0.3l0.6-0.5l0.5-0.5l0.4-0.7l0.3-0.8l0.4-0.5l0.4-0.5c0,0,0.4-0.8,0.4-0.6c0,0,0,0,0,0
	c0.1,0.1,0.6-0.1,0.6-0.1l0.3-0.5l3.4-6.3l4.6-6.9l1.7-2.6l3.7-5.1l0.4-0.1l0.1,0.1l-0.1,0.8l-0.2,0.2l-0.1,0.6l-0.1,1l-0.3,0.5
	l-0.3,0.7c0,0-0.3,0.9-0.3,0.8c0-0.1-0.3,0.9-0.3,0.9l0,0.3l-0.2,0.4l-0.3,2.1l-0.3,0.4l-0.5,0.7l0,1.5l-0.1,0.6l-0.2,0.3l-0.1,0.7
	l-0.3,1.6l0,0.6l-0.1,0.3l-0.1,0.6l-0.3,0l0,0.8l-0.2,0.2l-0.1,1l-0.2,0.2v2.3l-0.2,0l-0.1,1.5c0,0-0.2,0-0.2-0.1c0-0.1,0,1.1,0,1.1
	l-0.2,0l0.1,0.8l-0.2,0.3l-0.4,1.7l-0.3,2.1l-0.2,1.2l-0.2,0.1l0,1.2H178l-0.2,1.2l-0.2,2l-0.1,0.2l-0.1,0.5l0.1,0.2l0,0.3l-0.1,0.8
	l-0.1,1.6l-0.2,0.2l-0.1,3.4l-0.1,0l-0.1,0.3l-0.2,0.6v0.3c-0.1,0.1,0,4.5,0,4.5h-0.1l-0.1,0.8l-0.2,0l0,5.7l-0.2,0.1l0.1,3.3
	l-0.3,0l0,1.3l-0.2,0.1l0,1.7l0.3,0.2l-0.2,7.1l-0.1,2.6l-0.2,0.1l-0.1,2.6l-0.1,0.1v3l0,5.3l0.2,0.1l0.1,2.5l0.2,0.1l0,3.6
	c0,0.2,0.6,0.8,0.6,0.8l0.4,0.1l0.8-1.5l0-2.9l-0.2-0.3l-0.1-2.3l-0.3-0.1l0-1.1h0.2l-0.1-0.6l0.3-0.2l0.3-0.4l0.2-0.5l-0.2-0.1
	l-0.1-1.3l0.3-0.1l-0.1-0.6l0.2-1.2l1.1-4.3c0.2-0.6,1.3-4,1.3-4l0.3-1.1c0.3-1.1,0.8-5.5,0.8-5.5l0.2-0.2l0.2-3.3l0.2-1.4l0.3-1.7
	l0.1-0.2l0.2-1.6l0.2-1.1l0.2-0.4l0.4-0.2l0.1-0.5l0-0.8h0.3l0-1h0.2l0.2-1.2l0.5-2l0.3-1.3l1.5-4.6l0.2-0.6l0.2-0.4h0.5l0.1-0.4
	h0.1v-0.4l0.2-0.6l0.5-1.2l0.4-0.9l0.4-2l0.3-0.3l0.1-0.8l0.1-0.2l0-0.7l0.3-0.2l0.2-1.2l0-2l0.4-1.2l0.6-0.8l0.6-0.8l0.3-0.7l0.1-1
	l0.2-0.8l0.2-0.3l0.1-0.5l0.7-3.7c0.2-1.1,1.3-2.7,1.3-2.7l0.2-0.2l-0.1-0.3l-0.1-0.1l-0.2-0.5l1.2-0.1c0,0,0.1-1.1,0.1-1.1
	c0-0.1,0.2-0.1,0.2-0.1l0-0.8l0.6-0.1l0.2-0.2l0.3-0.1l0.5,0.1l0.1,0.1l0,0.1l0.3,0.1l0-0.3l0-0.7l0.5-0.6l0.5-0.4h0.4l0.5,0L200,73
	c0-0.5,0.9-1.2,0.9-1.2l0.6-0.2l0.4-0.2l0.6-0.1l0.2-0.3l0.2-0.5l0.6-0.5l1.6-0.9l2.2-1.6l3.7-2.3l8.7-6.4l0.4-0.1l0,0.3l-0.2,0.3
	l-2.2,5c-0.8,1.8-2.4,7.5-2.4,7.5l0,1.8l-0.1,0.2l0,2.2l0.2,0.1l0.1,0.7c0.3,2.9,2.1,4.8,2.1,4.8l0.7,0.4l1.5,1.2l0.5,0l0.5,0.1
	l0.3,0.5l0.5,0.5l1.3,0l0.1-0.2l0.2,0c2.6-0.2,5-2.1,5-2.1l2.3-2.4l6.8-6.5l5.9-6.2l0.3-0.2l0.1,0.3l-0.1,0.5l-0.3,0.6l-0.5,2.1
	l-0.9,2.6l-0.7,2.9l-1.1,3.8L239,82c-0.3,0.6-1.6,10.3-1.6,10.3l-0.1,4.7l-0.2,0l-0.1,0.7c0.2,0.9,1.1,1.2,1.1,1.2l0.6,0l0-0.2
	l0.4,0l0.1-0.1c-0.1-1,0.6-5.9,0.6-5.9c0.7-3.1,1.8-6.6,1.8-6.6l0.3-0.8l1.2-0.9l0.4-1.1l2-3.9c1.8-3.7,4.7-7.1,4.7-7.1
	c0.4-0.3,0.7-1,0.7-1l2.5-4.5l4.3-7.9l5.3-9l0.4,0l0.4-0.3l0.2-0.2l0.2-0.6l1.3-1.5l0.8-0.8l1-1.1l0.4-0.3l0.2-0.5l-0.3-0.1l0-0.7
	l0.2-0.2v-0.9c-2.3-2.3-4.6-2-4.6-2l-0.2-0.2l-0.5-0.3l-2.7,0l-0.4,0.2l-1.1,0l-0.3,0.2c-0.4,0.3-4.5,6.4-4.5,6.4l-3.7,5.8l-0.5,1.1
	l-0.6,0.8l-1,0.7l-4.5,4.1l-6,5.4l-5,4.1l-4.4,3.9l-2.5,2.3l-0.3,0.2l-0.2-0.3l0.1-0.4l0-0.7l0.3-0.3l0.3-1.2l0.3-0.5l0.3-1.3l1-2.3
	l1-2.6l0.5-0.6l0.4-0.9l0.4-1.6l0.7-1.2l2-4.2l0.3-1.1l0.2-0.4l0.5-0.3l0.5-0.5l0.6-0.8l0.1-0.9l0.4-0.1l0.8-0.6l1.5-1.7l0.5-0.7
	c0.5-1.5-0.2-2.3-0.2-2.3l-0.7-0.4l-0.3-0.3l-0.3-0.6l-0.7-0.2l-0.9-0.3l-0.7,0L233,46v-0.4l-0.6-0.5l-0.6,0l-0.5-0.2l-0.5-0.4
	l-0.3,0c-0.3,0-1.5,1.4-1.5,1.4c-0.3,0.4-2.4,2.8-2.4,2.8l-0.5,1.2l-1.7,1.6l-0.9,1.3l-0.6,0.2l-0.7,0.4l-2.1,0.8l-3.1,1.4l-3.6,1.7
	l-5.7,2.6l-2.3,0.9l-4,2.3l-0.6,0.6l-1.1-0.1l0.2-0.6l0-0.6l0.4,0l0-0.7l0.4-0.1l0.2-0.7l0.1-0.5l0.3-0.9l0.5-1.2l0.7-1l0.4-0.8
	l0.3-0.5l0.2-1.3l0.2-0.4l1.6-3l3-6.1l0.7,0l0.1-0.3l-0.2-0.2l0.2-0.5l0.7-0.3l0-1.1c0.1-0.4,1.9-3,1.9-3l0.4-0.5l0.2-0.4l0.1-0.5
	l0.1-0.5l0.2,0.1l0.4-0.4l0.7-0.6l0.8,0.1l0.1-0.6l-0.2-0.2l0-1.1l0.5,0l0.3-0.1l-0.1-1.5l0.2,0l0.5,0l0.2-0.3l0.9,0l0-2.4l0.3-0.3
	l0.2,0l0.1-0.3l0.6-0.1l0-0.2v-0.6l0.3-0.3l0.4-0.9l1.3-1.6l0.2-0.5l0.5,0l0.2,0.2l0.3-0.3l0.1-0.7l0.9-1.3l0-0.7l0.2-0.6l0.3-0.5
	l0.7-0.1l0.1-0.3l0.3-0.1l0-0.2l0.1-0.9l0.5-0.8l0.6-0.8l0.6,0l0.1-0.6l0.2,0l0-1l0.3-0.1l0-0.3c0.6-2.8,2.9-4.4,2.9-4.4l0.6-0.2
	l0.3-0.1l0.5-0.2l0-0.6l0.4-0.4V8.8c-0.1-0.7-1.3-2.6-1.3-2.6L229,5.5L228,5.3l-0.2,0.2h-0.7l-0.2-0.2l-0.7,0.1V5.2
	c-2.4-0.6-5.3,1.5-5.3,1.5c-0.7,0.4-3.5,4.6-3.5,4.6l-1.1,0.1l-0.1,0.3H216V13h-0.4l-0.3,0.1c-0.5,0.2-2.8,2.5-2.8,2.5l-0.3,0.6
	l-0.3,0.7h-0.3l-0.8,0.4l-0.5,0.6l-0.4,0.7l-0.6,0.6l-0.5,0.1l-0.4,0.8l-0.6,1.1l-0.9,1.1l-1.3,1.9l-0.7,0.9l-0.4,0.9l-0.3,0.4
	l-0.6,0.6l-0.7,0.4l-0.3,0.3v1l-0.4,0.5l-0.9,1.2l-0.4,0.3h-0.5l-0.2,0.2v1.2l-1,1.3l-0.3,0l-0.3,0.1l-0.1,0.4v0.4l-0.3,0.6
	l-0.4,0.2l-0.2,0.2l-0.4,0v0.6l-0.2,0.4l-0.3,0.4l-0.4,0.5l-0.5,0.4v1l-0.1,0l-0.2,0.3l-0.5,0l-0.4,0.4v1.3l-0.1-0.1l-1.2,0.9v0.6
	l-0.4,0.3l-0.4,0.4l-0.3,0.7l-0.2,0.5l-0.2,0.4l-0.5,0.6l-0.3,0l-0.1,0.7l0.2,0.2l-0.1,0.2l-0.3,0.3l-0.2,0.6l-0.5,1.3l-1.5,1.8
	l-4.8,5.8l-5.3,6.3l-4,5l-4.5,5.7l-4.4,5.8l-1.6,1.9l-2.2,3l-3.1,4.5l-0.9,1l-0.8,0.8l-0.9,1.2l-1.7,2.3l-0.3,0l-0.5,0.1l-0.5,0.7
	l-0.7,0.7l-0.9,1.5l-1.4,1.3l-2.1,2l-0.7,0.6h-0.3l-0.3-0.2v-2.3l0.2-0.4l0.1-1l0.3-0.9l0.6-2.6l1-2.5l0.5-1l0.8-2l-0.1-0.7l0.1-0.7
	l0.3-0.3l0.3-0.4l0.1-0.4l0.2-0.5v-0.4l0.2-0.2l0.1-0.3l0.2-0.5l0.2-0.1L152,82l0.1-0.3l0-1h0.6l0-1.5c0.8-0.9,3.1-6.1,3.1-6.1
	l2.9-4.9l0.7-0.6l0.2-0.5l0-0.7l0.2-0.3l0.8-0.9l0.6-0.1l0.1,0.2h0.2l0.1-0.9l0-0.3l0.4-0.3v-0.5l0.1-0.8l0.2-0.1l0-0.4l0.6-0.6
	l0.1-0.5l1-0.1l0.2-1l0.1-0.2l0.5-0.9l0.5-0.8l0.8-1l0.2-0.5l1.1,0l-0.1-1.2l0.4-0.1l1.1-1l0.3-0.4h0.8l0.3-0.4l-0.1-0.6l0.2-0.4
	l0.3-0.4L171,51l0.2-0.2h0.9l0.3-0.3l0.5-0.7l1-1.1l0.4-0.9l0.1-0.6l0.2-0.1l0-1l0.9,0v-0.4l0.4-0.3l0.3-0.9l0.4-1l0.1-0.5v-0.5
	l0.9,0l0.4-0.2l1.1-0.5v-0.7l0.6,0l0.4-0.1l-0.3-0.4l-0.4-0.3l0-0.3l0-0.3h0.1l0.1-0.4l0.3-0.3l0.1-0.3V37l-0.2-0.4v-0.2
	c-0.1-0.5-0.7-1.5-0.7-1.5l-1.1-1.7l-1-1.1l-0.2-0.6l-0.3,0.2l-0.1,0.4l-0.3,0.2l-0.1,0.2l-0.2,0l-0.3-0.2l-1.9,0v-0.2l-0.3-0.3
	l-0.2-0.2l-0.6-0.2l-0.3,0.1l-0.2,0.3l-0.4,0.5l-1,0.3l-0.4,0.3l-0.3,0.1l-0.2-0.3l-2.1,0.1v0.1l-0.2,0l-0.2-0.1l-0.4,0v-0.1
	l-0.6-0.1h-5l-0.1,0.3h-1l-0.1,0.2l-1.3,0.1v0.1l-0.6,0.1l-0.2,0.3l-0.2,0.2l-0.6,0l-0.1-0.2l-0.5,0l-0.1-0.3h-0.3l-0.1,0.3h-0.4
	l-0.6,0.3l-0.5,0.4l-0.2,0.5h-0.9l-0.5,0.1l-0.6,0.5l-0.8,0.7l-0.6,0.2l-0.2,0.1h-1.2l-0.5,0.4l-0.1,0.7h-0.7l-0.4,0.1l-1.1,0.6
	l-0.4,0.4h-0.3l-0.2,0.3l-0.6-0.1l-0.2-0.3l-0.9,0.1l-0.1,0.3l-0.8,0.4l-1.5,0.8l-1,1l-0.1,0.2l-0.2,0.2l-0.3-0.3l-0.9,0v-0.2h-0.2
	l-0.2,0.2l-0.2,0.3l-0.2,0.4l-0.2,0.3v0.3l-0.2,0.1l-0.1-0.1l-0.4-0.1h-0.4l-0.1,0.2l-0.2,0.2v0.5l-0.3,0.1h-1l-0.4,0.6l-1,1.2
	l-0.3,0.4l-0.2,0.2l-0.2,0.1l-0.2-0.3l-0.2-0.2h-0.2l-0.1,0.3l-0.2,0.2l-0.1,0.4l-0.2,0.4l-0.4,0.3l-0.2,0.1l-0.5,0.3l-0.9,0.1
	l-0.3,0.2c-1.1,0.3-0.8,1.4-0.8,1.4l-1.2,0.1v0.5h-0.2v0.4l-0.3,0.1v0.3h-0.8v0.5h-0.2v0.7l-1,0.1l-0.2,0.7H125v0.4h-1l0,0.7
	l0.2,0.1v0.6l-1.1,0.1v0.7l-0.2,0.2v0.3l-0.3,0v-0.2h-0.2l-0.1,0.2H122l-0.1,1.2h-0.2l-0.1,0.3l-0.4,0.3l-1.2,0.8l-0.1,0.8h-0.3
	l-0.1,0.1l-0.7,0.6V61h-0.3l-0.5,0.3L117.5,61.7"/>
<path class="st8" d="M313.6,40.1l-1.5-0.2l-4.1-0.6c-1.1-0.1-1.5,1.1-1.5,1.1l-3,5.6l-0.8,0.8l-0.3,0.3l-0.5,0.2l-1.3,0.5
	c-0.7,0.1-6,3.2-6,3.2l-7.5,5l-1.1,0.6h-0.4l0-0.4l0.4-0.8l0.5-0.9l0.2-1l0.5-1.8l0.2-2c0-1.9-1.2-2.5-1.2-2.5v-0.5l1.3-1L288,45
	c0.6-1,0.5-1.9,0.5-1.9c-0.1-0.6-1.8-1.4-1.8-1.4l-1-0.3l-0.4-0.3L285,41l-0.9-0.2c-1.8,0-4.9,2.6-4.9,2.6l-1.5,1.1l-0.3,0.5
	l-0.4-0.1c0,0,0.5,0.3-0.3-0.1c0,0,0,0-0.1,0c-0.8-0.3-1.4,0.1-1.4,0.1l-0.9,0.8l-0.4,0.4l-0.4,0l-0.8,0.1l0,0.5l-0.3,0.3l-0.4,0.6
	l-0.7,1.1l-0.1,0.5l-0.3,0.4l-0.1,0.4l-0.1,1.9l0.3,0.1v0.5l-0.3,0.1l-0.4,0.8l-1.5,2.7l-1.1,1.4l-0.6,0.6l-0.6,0.8l-0.4,0.6
	l-0.2,0.4c-0.6,1-2.5,5.4-2.5,5.4l-0.3,0.8l0,0.6l-0.3,0.2l0.1,1.8l0.1,0.1v0.6v0.3c0.9,2.1,2,2.3,2,2.3l2.3,2.2l1,0.6l2.5-0.1
	l0.3-0.3c2.2-0.6,3.8-2.5,3.8-2.5l0.8-0.8l0.4-0.3c0.6-0.4,2.9-3,2.9-3c2.5-3,3.7-5.3,3.7-5.3l0.5,0l0.2,0.3l0.6,0.5
	c0.9,0.6,2.3,0,2.3,0l0.4-0.4c1.6-0.9,6.3-4.3,6.3-4.3l6.1-4.2l0.2,0.4l-0.4,0.5l-0.2,0.8l-0.4,1l-0.3,1.1c-0.9,1.6-2.3,8.8-2.3,8.8
	l-0.1,1.9l-0.1,0.1l-0.1,2l-0.5,0.5l0.1,1.5l0.5,0.1l0.4,0.2v1.3h0.7l0-0.1l0.5-0.2l1.3-0.6l0.5-0.5l0.2-0.7h-0.3l-0.1-2.5l0.3-0.3
	v-0.4l0.3-0.4l0.3-0.5l0.2-0.6c0.7-1,3.1-4.6,3.1-4.6l0.9-1.9l4-7.1l3.7-6.3l1.9-2.9l0.7-1.4C315,41.1,313.6,40.1,313.6,40.1z
	 M279,56.4c0,0-1.6,3.8-3.9,6.9c0,0-1.8,2.3-2.3,2.6h-0.3l0.1-0.2l0.2-0.5l0.3-0.6c0,0,3.1-5.3,4-6.5l1.3-1.8l0.4-0.5l0.1-0.3h0.1
	l0.1,0.5L279,56.4z"/>
<path class="st8" d="M334,11.7c0,0,0.4-0.9,1-0.9c0,0,2.3-0.3,4.1,1.1c0,0,3,1.5,3.5,4.6l0.2,0.1l-0.1,0.5l-0.2,0.2l-0.1,0.8
	l-0.3,1.1c0,0-1.7,2.1-2.1,2.5l-2,3.4l-3.6,5.9l-4.6,7.4c0,0-3.6,5.5-4.7,6.7l-0.1,0.5v0.7l-0.4,0.4l-0.4,0.4l-0.4,0.3v1.9l-0.3,0.2
	l-0.5,0.2l-0.1,0.4l-0.4,0.8L322,53c0,0-1.3,4-1.4,4.2c0,0-0.7,1.3-1.2,1.9l-0.2,0.4l-1,2.5c0,0-2.3,3.5-2.7,3.9L315,66v-0.2
	l-0.6,0.1l-0.9,2.8c0,0-1.3,4-1.8,4.8l-0.3,0.4l-0.7,0.6l-0.8,0.9l-0.3,0.7l-0.7,1.3c0,0-1.3,1.6-1.9,2l0.1,0.6c0,0,0.2,3-0.4,4.5
	l-1,2.8l-4.6,10.2l-1.4,3l-0.8,1.8l0.1,0.5l0.5-0.3l4.1-3.3c0,0,5.3-4.4,9.7-4.9c0,0,3.7-0.4,4.1,0.3c0,0,0.7,0.4,1,2.3l0,0.7
	l-0.3,0.3l-6.1,8.9l-7.5,10.4l-5.2,7.3l-1.5,2.2l-0.3,0.5h0.3l0.4-0.3l1.5-0.8l1.8-0.8l0.3-0.1l0.2-0.5l0.4-0.2h0.5l0.2-0.2l0.5-0.1
	l1.2-0.6c0,0,9.3-4.7,11.8-5.7l9.7-4l3.5-1.2l1.6-0.6l0.6-0.3l-0.2,0.4l-0.5,0.3l-1.6,1.8c0,0-1.5,0.8-2.2,1l-0.5,0l-0.2,0.4
	l-1.4,0.8l-7,4.4l-0.7,0.3l-2.9,2.1l-12,7.2l-2.7,1.7l-4.1,2.9l-1,0.4l-1,0.4l-0.9,0.3l-0.6,0.1l-1.9,0.9l-0.4,0.3l-0.1,0.2h-0.5
	l-0.4-0.5l-1.5-1.9l-0.7-0.6l-1.2-1.2c0,0-0.3-0.9-0.1-1.3c0,0,0.8-0.9,0.9-0.9s0.6-0.4,0.6-0.4l0.3-0.3l1.2-1.9l0.9-1.4l0.8-1.3
	l0.6-0.5l0.6-0.5l0.1-0.8l1-0.9l0.5-0.6l0.3-0.4l0.1,0v-0.8l0.2-0.1l0.4-0.2l0.5-0.3l0.4-0.6l0.1-0.4l0.1-0.5l0.7-0.6l0.4-0.5
	l0.3-0.2l0.1-0.6l0.4-0.5l1.9-2l1.7-2.4l0.9-1l0.5-0.4l0.3-0.5l0.3-1.3l0.8-1.1l1.9-2.6l0.9-1.5l0.8-1.1l0.4-0.7l0.3-0.2l-0.1-0.3
	l-0.6,0l-1.1,0.9l-5.1,4.7c0,0-2,2-4.9,3.1l-0.5,0.3h-0.3l0,0.2l-0.6-0.1c0,0-2.8-1.8-3.4-3.4l-0.2-0.8l0.1-1.8c0,0,2.4-5.3,2.9-6.3
	l4.2-9.8L299,88l0-0.5l0.1-0.2l-0.1-0.2l-0.4,0l-0.6,0.7l-4.2,2.8l-0.4,0.4l-0.7,0l-0.5,0.3l-0.2,0.4l-0.5,0.3l-0.8,0.8
	c0,0-0.7,0.6-1.2,0.6l-0.2,0.1l-0.8,0c0,0-0.5-0.7-0.9-2l-1.1-2.4l-0.6-1.1l-0.5-0.5l-0.3-0.4v-0.7l1.3-0.8l0.5-0.2l0.5-0.1l0.8-0.6
	l3.1-2.9l0.6-0.2l0.9-1l0.3-0.2l0.6-0.3l2-0.8l2.8-0.9c0,0,1.7-0.5,2.5-0.5c0,0,2.9-0.1,3.3,0.1l0.4,0.2l0.6-0.1l0.4-0.4
	c0,0,2.7-2.7,3.9-5.9c0,0,0.7-1.5,2.1-6.5l1.1-4.5l0.6-2.6l1.6-5.8l1.3-4.8l0.5-1.5l0.5-2.4l0.7-1.6l0.1-0.9l0.5-1.4l0.5-1.3
	l0.5-1.5l0.4-0.7l0.3-0.5l0.2-0.8l0-0.8l0.9-1.1l2.2-4.2l1-2l0.9-1.4l0.5-1.7l0.7-1l0.3-0.4l0.7-0.8l0.4-0.4l0.1-0.6
	c0,0,1.9-3,2.6-3.9l1.7-2.5l0.8-1.2l0.4-0.7L334,11.7z"/>
<path class="st8" d="M340.8,46.8l0.1-0.6l0.3-0.5h0.5l1.1-0.1l-0.1-0.7h0.4l0.6,0.4h0.2l0.2-0.4l0.2-0.5l0.6-0.2l0.8-0.4l0.8-0.4
	l0.4-0.2v-0.5h0.8l0.4-0.2l0.5-0.3l0.3-0.4l0.3-0.2l0.2-0.4l0.2,0.1l0.2,0.3l0.3,0.3l0.5,0l0.1-0.2l0.3-0.1l0.2,0.1l0.2-0.2l0.7,0
	l0.2-0.4l0.7-0.6l0.2-0.2h1.1l0.3-0.1l0.1-0.8h0.4l0.3,0.4v0.2h0.3v-0.2l1.3,0l0.2-0.3l0.1-0.2v-0.5h0.3l0.5,0.5l0.3,0.3v0.2
	l0.4-0.2l0.1-0.2h0.3V39l0.7,0l0.1,0.2h0.1V39l1,0l0.4,0.2l0.1-0.3l0.5-0.1l0.2,0.2l0.8,0.1V39l0.7,0v0.3l0.2-0.1v-0.5h0.3l0.3,0.3
	l2.9,0.8c0,0,4.3,1.8,5.2,2.3l2.6,1.6c0,0,0.5,0,0.9,1l0.6,1.6l0.4,1.1l0.1,0.9h0.2v1.9h0.2l-0.1,0.9v0.2l-0.2,0.3l-0.1,0.9
	l-0.2,0.5l-0.2,0.5l-0.3,0.4h-0.2l-0.1,1l-0.2,0.5l0,1l-0.2,0.2l0,0.4l-0.2,0.2l0,0.7c0,0-0.7,1.1-1.1,1.3l-0.1,1.3l-0.5,0.1
	l-0.4,0.1l-0.1,0.4h-0.2l-0.1,1.1l-0.4,0.2l-0.4,0.6l-0.5,0.3l-0.4,0.7l0,0.5l-0.2,0.2l0,0.8l-0.3,0.2l0,0.6h-0.3l0-0.4l-0.3,0
	l-0.1,0.7l-0.4,0.8l-1.5,2.1l-0.5,0.8l-0.5,0.7l-0.1,0.7l-0.2,0.1l-0.1,0.5l-0.2,0.7l0,0.2h-0.4l-3.5,7.2l-0.3,0.3l0,1.3h-0.2
	l-0.2,0.7l-0.4,0.6h-0.2l0,1.5l-0.5,0.2l-0.1,0.6l-0.4,0.1l0.1,0.5l0.4,0.3l0.4,0.3l0.1,0.1l0,0.5h-0.2l0,0.8h-0.3l0,1.9H361l0,1.9
	l-0.4,0.3l-0.1,0.7h-0.7l0.1,0.7h0.2l-0.1,0.4h-0.9l-0.4,0.3l-0.6,0.8l-0.3,0.3l-0.2,0.2H357l-0.2-0.1l-0.2-0.2l-0.2,0v0.2l-2,0
	l-0.3-0.7l-0.2-0.4l-0.3-0.5l-0.4-0.5l-0.5-0.2l0-1.4l-0.2-0.1l-0.1-0.8l-0.3-0.6l-0.2-0.5l-0.4-0.2l-0.2-0.5l0.1-0.2l0.3-0.1v-0.2
	l0.1-0.4l0.3-0.6l0.4-1.2l0.3-0.5l0.4-0.6l0.4-0.6l0.5-0.5l0.3-0.4l0.4-0.7l0.2-0.9l0.5-1.3l1.2-3.7l0.8-1.8l0.9-3.5l2-5.9l1.7-4.9
	l0.3-1.5l0.4-1.6l0.3-1.1v-0.7l0.2-0.1l0.2-1l0.1-0.2l0.1-1l0.1-0.2l0-1.4h-0.8l-0.2-0.2h-0.5l-0.1-0.2l-0.7,0l-0.2,0.3l-0.4,0.2
	l-0.4,0l-0.3,0.3l-0.2,0.3l-0.4,0l-0.1,0.3v0.3l-0.2,0.2l-0.1,0.3l-0.4-0.1l-0.1-0.2l-0.6,0l-0.1,0.3l-0.6-0.1v0.2l-0.7,0.1
	l-0.1,0.2l-0.7,0l-0.1,0.6l-0.2,0.5l-0.3,0.2l-1.1,0.1l-0.2-0.5l-0.3,0.1l-0.5,0.4l-0.8,0.2l-0.1,0.2l-0.7,0.1l-0.1,0.2l-1.1,0.2
	l-0.2,0.3l-0.5,0.2l-0.5,0.1l-0.2,0.2l-0.2,0.4l-0.4,0l-0.6,0.1l-0.2,0.5l-0.6,0.4l-0.8,0l-0.1,0.2c0,0-1,0.2-2-0.5l-0.9,0l-0.2,0.2
	h-0.3l-0.1-0.5l-0.3,0.1l-0.1,0.3l-0.1,0l-0.2,0.2l-0.2-0.2l-0.1-0.2l-0.4,0l-0.2-0.3l-0.7,0.1l-0.1,0.3h-0.5v0.2l-0.3-0.1v-0.9
	l-0.2-0.1v-0.3l-1.2,0l-0.2-0.1l-0.3-0.6l0.1-0.8l-0.2,0v-0.3l-0.9-0.2l-0.1-1.3l-0.1-0.4V54l-0.3-0.2l0.1-1.5l0.1-0.4l0.2-0.4
	l0.2-0.5l0.2-0.5l0.2-0.1l0-0.8l0.4,0l0.4-0.2l0.4-0.5l0.2-0.5l0.3-0.5l0.4-0.5l0.4-0.5h0.4L340.8,46.8z"/>
<path class="st8" d="M392.1,35.7l0.1-0.3h0.7h0.3v0.2h0.8l0.3,0.2l0.7,0.3l0.4,0.4l0.6,0.4l0.4,0.2h0.3v0.4h0.6l0.1,0.5v0.7l0.1,0.7
	l0.2,0.2v1.8l0.1,0.1l0.3,0.4l0.1,0.3v1l-0.3,0.7l0,0.5l-0.1,0.1l-0.1,0.5l-0.3,0.4l0,0.4l-0.2,0.1l-0.3,0.9l-0.2,0.2v0.6l-0.2,0.1
	l-0.1,0.6l-0.2,0.2l-0.1,0.7l-0.2,0.1l0,2l-0.4,0.1l-0.5,0.2v1.2l-0.3,0.1v0.7l-0.7,0.1l-0.2,0.3l-0.1,0.7l-0.2,0.2l0,0.4h0.3
	l-0.1,0.4l-0.4,0.2l-0.1,0.8l-0.3,0.6l-0.4,0.4l-0.2,0.4l0,0.3l-0.1,0.6l-0.5,0.5l-0.2,0.3l-0.9,1.4l-0.2,0.5l-0.3,0.3l-0.6,1.4
	l-0.4,1l-0.2,0.6l-0.2,0.4l-0.2,0.9l-0.2,0.4l-0.5,0.6l-0.6,0.7l-0.3,0.5l-0.5,0.7l-1.1,2.2l-0.6,1.4l-0.2,0.9l-0.1,0.4h-0.2v0.7
	l-0.2,0.3l-0.2,0.3l-0.3,0.6v0.7l0.1,0.7l0.1,0.3l0.4,0.7l0.1,0.4l-0.2,0.1v1.6l-0.2,0.2l-0.1,1.5l0,1.2c0,0-0.1,0.7-1.1,0.9v1.2
	h-0.5v-0.2l-0.7,0.1v0.6h-0.9v-0.2l-0.2,0l-0.1,0.2l-0.3,0.2v0.1h-0.8v-0.4l-0.4-0.3l-0.5-0.4l-0.3-0.3l-0.5,0l-0.1-0.3v-1.6
	l0.2-0.1l-0.1-0.2l-0.2-0.3l-0.3-0.3l-0.1-0.6l-0.1-0.2v-1.9l0.2-0.4l0.3-0.6l0.2-0.1l0.1-3.3l0.2-0.1l0.1-1.8l0.2-0.2l-0.1-1.5
	l0.2-0.3l0.1-1.5l0.3-1.4l0.1-0.2l0-1.2l0.2-0.1l0.1-1.3l0.1-0.3l0.1-1.1h0.1l0.2-1.1l0.2-0.1l0.1-1.1l0.2-0.8l0-0.4l0.2-0.1L381,60
	l0.3-0.6l0.2-0.6l0.1-0.1l-0.1-0.5l-0.2-0.2l0.1-0.4l0.2-0.4l0.3-0.4l0.4-0.3l0.2-0.3l0.2-0.1l-0.1-0.2l-0.4,0l0-0.4l0.4-0.5
	l-0.1-0.5l0.1-0.3l0.2-0.1l0.1-0.2l0.2-0.2l0.1-0.4l0.3-0.6l0.2-0.4l0.2-0.3l0.1-0.2L384,51l0.2-0.1v-1.2l0.3-0.2l0.2-0.2L385,49
	l0.1-0.4l0.2-0.9l0-0.4l0.5-0.2l0.3-0.4l0.1-0.4l0-1l-0.2-0.1l0.1-0.3l0.2-0.1l0.3-0.4l0.3-0.4l0.3-0.3l0.1-0.4l0.2-0.3l0.1-0.5
	l0.1-0.1l0.1-0.6l0.4,0l0.1-0.3l0.1-0.5l0.1-0.4l0.2-0.1l0.2-0.2l0-0.5l-0.2-0.1l0-0.1l0.1-0.2l0.2-0.1l0.4-0.4l0.3-0.1l0.4-0.1
	l0.1-0.5l0.4-0.6l0.4-0.6l0.7-0.6l0.3-0.2L392.1,35.7z"/>
<path class="st8" d="M419.1,27.6c0,0-0.2-1.8,0.8-3.2l1.1-1.3l1.8-1.2l0.9-0.5l0.6-0.3l0.7-0.6l0.4-0.1h0.7l0.5-0.1l0.5-0.2l2.6-1
	l3.6-1.2l1.5-0.2l0.1-0.3h1.2l0.2-0.2h1l0.3-0.3c0,0,0.8,0,0.9,0s0.4-0.4,0.4-0.4l0.3-0.1h0.7l0.2,0.2l0.1,0.4h0.3l0.2-0.2l0.3-0.2
	l0.2-0.1h0.9l0.5,0.4l0.6,0l0.2,0.3l0.2,0.1l0.3-0.1v-0.2l1.4,0v-0.2l1.1,0l0.3,0.4l0.2,0.6l0.4,0.6l0.5,0.8l0.5,0.7l0.4,0.6
	l0.2,0.6L449,21v0.4l-0.2,0l-0.1,0.5l-0.2,0.1l0,0.7l0.3,0.3l-0.3,0.5l-0.2,0.5l-0.5,0.6l-0.6,0.4l-0.4,0.3l-0.1,0.4l-0.2,0.2
	l-0.1,0.3l0,0.3l-0.1,0.4l-0.2,0v0.4l-0.3-0.1l0-0.5l-0.1-0.1v-0.3l-0.5,0.1l-0.1,0.3l-0.2,0.1l0,0.4l-0.3-0.1l-0.1-0.3l-0.2-0.1
	l-0.1-0.1l-0.3-0.2l-0.1,0l-0.2,0.2l-0.3,0l-0.1,0.3l-0.3,0.2l-0.3,0.1l-0.1,0.1l-0.4,0l-0.3,0.1l-0.3,0.2h-0.9l-0.1,0.9h-0.4
	l-0.2-0.2l-0.2-0.3l-0.5,0l-0.1-0.2l-1-0.1l-0.1-0.2l-1.3,0l-0.3,0.2l-1.6,0l-0.1,0.2l-1.6,0l-0.1,0.3h-0.8l-0.2,0.2l-0.7,0.1
	l-0.2,0.2l-0.5,0.1l-0.6,0.2l-0.2,0.3l-0.3,0.1l-0.2,0.3l-0.3-0.2l-1.2,0.1l-0.1,0l-0.2,0.1l-0.1,0.3l-0.3,0.2l-0.1,0.2H427
	l-0.1-0.3l-1.3,0.1l-0.1,0.2h-1l0,0.3h-0.2l0-0.3l-0.8-0.1l-0.1-0.3l0-0.2l-1.4,0l-0.5,0v-0.3l-1,0.1l0-0.5l-0.2-0.3l-0.2-0.3
	l-0.3-0.3l-0.1-0.4l-0.3-0.4L419.1,27.6z"/>
<path class="st8" d="M414.5,33.4h0.3v-0.2h0.3l0.1,0.2l0.3,0.2c0,0,0.9,0.3,0.9,1.2l0.2,0.1v1.2l-0.2,0.1l-0.1,0.7l-0.1,0.3
	l-0.4,0.8l-0.2,0.7l-0.2,0.5h-0.2l0,0.5L415,40l-0.1,1.2l-0.4,0.5l-0.8,2l-0.9,1.9v0.1l-0.8,1.6l-0.9,1.8l-0.2,0.5l-0.4,0.7
	l-0.2,0.2v0.6l-0.2,1l-0.3,0.8l-0.3,0.7l-0.3,0.6l-0.4,0.7l-0.3,0.6l-0.2,0.4l-0.1,0.5l-0.1,0.1l0.1,0.2h0.5l0.2-0.1l0.5-0.2
	l0.7-0.4l0.7-0.2l0.8-0.7l2.2-1.7l0.6-0.2l0.3-0.2l0.4-0.1l1.9-1.3l4-2.7c0,0,4.1-2.3,6.2-3l0.2,0l0.2-0.2h1v-0.3h0.5l0.4-0.1
	l0.2-0.1h0.9h0.4l0.2-0.2h1.3h0.2l0.1,0.4l0.5,0.5c0,0,0.4,0.6,0.7,1.9l0.1,0.3v1.4v1.3L434,51l-0.3,0.5l-0.4,0.4l-0.1,0.3l0.1,0.3
	l-0.3,0.1l0,0.7l-0.4,0.4l-1,0.6l-0.2,0.2l-0.1,0.3h-0.4l-0.2,0.3l-0.5,0.2l-0.4,0.3l-0.5,0.3l-0.4,0.5l-0.1,0.3l-0.4,0.2l-0.4,0.2
	l-0.3,0.1l-0.2,0.3l-0.4,0.1l-0.9,0.7l-0.6,0.7l-0.2,0.4l-0.2,0.2l0,0.4l-1.1,0.2l-0.1,0.7l-0.1,0.6l-0.2,0.2l0,0.5l-0.3,0.5
	l-0.2,0.5l-0.2,0.2l-0.1,0.4l-0.2,0.4l-0.3,0.3l-0.2,0.4l-0.2,0.1l0,1.2l-0.3,0.1h-0.6v0.2h-0.3v1.1l-0.2,0.1l-0.1,0.5h-0.3
	l-0.1,0.4l-0.1,0.4l-0.3,0.2l-0.1,0.5l-0.1,0.6l-0.1,0.2l-0.3,0.4l-0.3,0.5l-0.3,0.6l-0.4,0.8l-0.8,1.2l-0.5,1.5l-0.1,0.2l-0.1,0.5
	l-0.2,0.3l-0.3,0.5l-0.1,0.4l-0.1,0.5l-0.2,0.6l-0.2,0.3l-0.5,1.4l-0.5,1.3l-0.1,0.8l-0.2,0.3l-0.2,0.3l-0.2,0.3l-0.3,0.5l-0.2,0.3
	l-0.4,0.5l0.1,0.4l-0.2,0.3L413,86l-0.2,0.2l-0.1,0.3l-0.3,0.6l-0.2,0.3l-0.2,0.3l-0.2,0.5l0,0.8l-0.3,0.4l-0.2,0.9
	c0,0-0.3,0.2-0.2,0.1c0.1-0.1,0,0.5,0,0.5l-0.3,0.4l-0.2,0.8l-0.1,0.5h-0.2l0,0.6l-0.2,0.3l-0.2,0.4l-0.1,0.2h-0.3l0,0.5l-0.1,0.4
	l-0.1,0.8l-0.1,0.2l-0.1,0.4l-0.2,0.1l0.2,0.2h0.4l0.2-0.4l0.5-0.2l0.1-0.2l0.2,0V96l0.4,0.1l0.8,0l0.2-0.2l0.3-0.1l0-0.2l0.5-0.1
	l0.2-0.2l1,0l0-0.5l2,0l0.2,0l0-0.2l2.4-0.1l0.1-0.2h1.2l0.1-0.3h0.7l0.2-0.2h0.5l0.1-0.3l0.5-0.1l0.2-0.2h1.1l0.1-0.2l0.3,0.1
	l0.2,0.3l1.3,0l0.1-0.3l0.2,0l0.2-0.1l0-0.2h1.6l0.1,0.2l1.7,0.1l0.1,0.3l0.5-0.1l0.2-0.2l0.7,0l0.2-0.2l1-0.1v0.3l1.5,0l0.1-0.2
	l1.4-0.1v-0.2l0.3-0.1l1.2,0l0.3,0l0.1-0.3l1.8,0.1l0.1,0.4l0.1,0.3l0.4,0.1l0.2,0.4l0.2,0.1l-0.1,0.9l-0.2,0.2l-0.2,0.4l-0.3,0.1
	l-0.1,0.3h-0.4l-2.8,0l-0.3,0.2l-0.8,0.1l-0.4,0.1l-0.5,0.1l-0.3,0.2l-0.3,0.1l-0.1,0.2l-0.4,0.1l-0.3,0.2l-0.3,0.1l-0.4,0.3
	l-0.1,0.7c0,0-0.4,1-1.7,1.8l-0.5,0.3l-0.6,0.2l-0.2,0.2h-0.6l-0.1,0.3l-0.9,0.1l-0.1,0.1l-0.2,0.2l-0.2,0.3l-0.4,0.2h-0.5l-0.2,0.2
	h-0.8l-0.2,0.3h-0.5l-0.1,0.2h-0.9l-0.1,0.3l-0.9,0.1l0,0.2l-0.8,0.1l-0.1,0.1l-0.8,0.1l-0.7,0.2l-0.1,0.2h-0.6l-0.1,0.2h-0.7l0,0.2
	l-0.6,0.1l-0.1,0.2h-0.3v0.2l-0.3,0.1v-0.3h-0.6l-0.1,0.3h-0.7l-0.1,0.2l-0.5,0.1l-0.2,0.2l-0.5,0.2l-0.4,0.2l-0.2,0.2h-0.2v0.2
	h-0.2l0,0.2l-1.9,0.1l-0.1,0.1l-0.3,0.1l-0.1,0.2l-0.2,0.1l-0.1,0.2h-0.7l-0.1,0.2l-0.9,0.1l-0.2,0.2h-0.3l-0.1,0.2h-0.2l-0.2,0.3
	l-0.2,0.1l-0.3,0.1v0.2l-0.4,0.2l-0.1,0.4l-0.3,0.1l-0.1,0.3l-0.3-0.1V109l-0.2,0.1l-0.1,0.3l-0.5,0.5l-0.6,0.5l-1.2,0.9l-0.1,0.1
	l-0.5,0.1l-0.1,0.2l-0.4,0.1v0.2h-1l-0.1,0.2h-0.3l-0.1-0.3l-1-0.1l-0.1,0.2l-0.4,0.1l-0.1,0.1l-0.6,0.1l-0.2,0.2l-1.5,0.1l-0.1,0.6
	l-0.2,0.2l-0.1,0.3l-0.8,0.1l-0.3,0.2h-0.4v0.2h-0.3v-0.1l-0.2,0v0.2l-0.3,0.2l-0.2,0.1l-0.4,0.3l-0.2,0.2h-0.2l-0.2,0.2h-0.7
	l0.1,0.3l-0.6,0.1l-0.2,0.3l-0.5,0.4l-1.2,0.9l-0.3,0.2l-0.6,0.2l-0.6,0.5l-1.1,0.6l-0.3,0.5l-1.2,1.2l-0.1,0.4v0.5l-0.3,0.1
	l-0.1,0.4l-0.3,0.4l-0.6,0.3l-0.3,0.5l-0.3,0.1v0.4l-0.3,0.2h-1.3l-0.2,0.3h-0.6l-0.2,0.3l-0.3,0.2l-0.1,0.2v0.3h-0.4l-0.1-0.1
	l-0.3-0.3l-0.3,0v-0.2l-0.6-0.1v-0.2l-0.4,0l-0.1-0.2h-0.4l-0.1,0.3l-0.2,0.1l-0.4,0.1l-0.1-0.1v-0.7l-0.3-0.2V123l-0.2-0.2
	l-0.5-0.4h-0.4v-0.2l-1.8,0V122l0.3,0l-0.1-0.7l-0.4-0.1l-0.2-0.3l-0.2-0.3l-0.1,0v-0.4l-0.1-0.3h-0.3v-0.8l0.2,0l0.3-0.3l0.3-0.3
	l0.1-0.3l0.2-0.1l0.1-0.8l0.2-0.1l0.1-1.5l0.1-0.1l0.2-0.7c0,0,0.7-1,1-1.1l0.3,0l0.2,0l0-0.3h0.2l-0.1-0.3l-0.5-0.2l0.1-0.6
	l0.1-0.1l0.2-0.3l0.3-0.2l0.4-0.4l1.1,0l0.1-0.3l0.1-0.2l0.1-0.5l0.9-0.1c0,0,0.9-1.3,1.5-1.5l0.3-0.1l0.8-0.1l0-0.8l0.3-0.2
	l0.3-0.3l0.3-0.3l0.2,0l0.1,0.2l0.4-0.1l0-0.2h0.4l0.1-0.6l0.9-0.1l0.1-0.4l0.5-0.3l0.4-0.6l0.4-0.1l1,0l-0.1,0.2l0.9,0l0.1-0.4
	l0.3-0.2l0.2-0.3l0.2-0.2l0.2-0.3l1.8,0.1l0.2-0.2l0.1-0.8l0.3-0.3l0.3-0.1l0.4,0.2l0.1-0.2h1.7l0.3-0.1l0.5-0.2l0.3-0.3l0.2-0.3
	l0-0.6l0.4-0.1l0.2,0.2v0.2l0.1,0.2l0.8-0.1l0-0.2l0.6-0.1l0.3-0.4l0.3,0l0.5-0.1l0.1-0.2h0.2l0,0.1l0.1,0.1l0.3,0l0.1-0.2l0.2-0.1
	l0.1-0.1l1.3-0.1l0.4-0.3l0.4-0.6l0.2-0.4l0.2,0l-0.1,0.7l0.2,0l0.1-0.2l0.2-0.1l0.1-0.6l0.1-0.2l0.2-1l0.1-0.3l0.1-0.8l0.2-0.8
	l0.2-0.2l0.1-0.8l0.3-0.3l0-0.8l0.1-0.4l0.2-0.9l0.1-0.7l0.2-0.1v-0.8l1.9-6.9l3.4-11l0.3-1.1l0.7-1.8l0.7-1.3l0.2-0.7l0.3-0.7
	l0.4-0.3l0.2-0.3l-0.1-0.5l-0.4,0.1l-0.3,0.3l-0.3,0.3l-0.4,0.1l-0.2,0.1l-0.5,0.1l-0.2,0.1l-1.5,0.1l-0.2,0.2l-0.8,0.1l-0.2,0.2
	l-0.2,0.2l-0.7,0l0-0.2l-0.1-0.1l-0.9,0l0-0.2l-0.7,0l-0.2-0.3l-0.4,0l-0.1,0.2l-0.8,0l-0.2-0.2c0,0-2.6-2.2-3.9-4.9l0.1-0.2l-0.2,0
	l0-1.1l-0.3-0.1l0-1.1h0.2l0.1-1.4l0.1-0.4l0.1-0.5l0-0.3c0,0,1.4-3.1,2-4.1l2.9-5l3-5.2l1.2-2l0.3-0.4l0.2-0.4l0.3-0.5l0.3-0.5
	l0.3-0.4l0.3-0.4l0.3-0.3l0.4-0.4l0.1-0.3l0.1-0.8l0.4-0.3l1-1l0.8-0.5l0.6-0.2l0.2-0.3l0.3-0.2l0.2,0.1L414.5,33.4z"/>
<path class="st8" d="M535.2,25.3l-0.2,0v-0.5c-0.3-1.8-2.1-2.2-2.1-2.2l-0.7,0l-0.2,0.2l-1,0l-0.1,0.2h-0.3v-0.2l-1.1-0.1l-0.3,0.2
	l-0.4,0.3c0,0-0.4,0.1-0.5,0s0-0.3,0-0.3l-0.2,0l-0.2,1.1l-0.4,0.9l-0.7,0.6l-0.5,0.7v0.5l-0.4,0.3l-0.4,0.3l-0.5,0l-0.4,0.9
	l-0.7,0.6l-0.6,1.1l-1.1,1.1l-0.4,0.3v0.3l-0.4,0.5l-1.5,2.4l-1.6,2.3l-2.1,3.1l-1.5,2.2l-0.6,0.8v0.7l-0.3,0.1l-0.5,0.3v0.3
	c-0.6,1.2-2.8,2.8-2.8,2.8l-3.7,2.4l-2.3,1.5l-1.6,1l-2.5,1.9l-0.3,0.4l-0.5,0.2l-6.5,4.4l-8.6,6.5l-5.1,3.7l-1.3,1l-0.5,0.3
	l-0.4,0.2c-1.2,0.5-4,3.3-4,3.3l-0.4,0.4h-0.3l0.1-0.4l0.5-0.7l0.6-1.1l0.6-1.3c0.6-0.8,1.3-2.6,1.3-2.6L476,66l0.2-0.5l0.2-0.6
	l0.3-1.5l0.3-1.1l0.2-0.2v-2.6c-0.2-1.6-1.9-2.3-1.9-2.3l-0.3-0.2v-0.3h0.2l0.1-0.4l0.2-0.4c0.8-1.5,1.6-3.3,1.6-3.3l-0.1-1.1h0.3
	l0.1-0.5h-0.3l0-0.8c-0.1-0.9-2.1-2.4-2.1-2.4l-0.3-0.2l-0.1-0.2l0.3-0.3l0.3-0.2l1.1-0.1l0.1,0.3h0.6l0.1-0.3l1.1-0.2l1.1-0.3h0.3
	l0.8-0.2l0.9-0.1l0.3-0.2l0.8-0.3l0.5-0.1l1-0.1l1.2-0.2l1.7-0.2l0.2-0.2l2.9,0v-0.2l0.3-0.1l0.3-0.3h0.4l0.1,0.2l0.5,0.1l0,0.2
	l0.5,0.2l0.8,0.5l0.1,0.3l0.5,0.2l0.4,0.3h1.2l0-0.3l0.8-0.1v0.3h0.7l0-0.3l0.1-0.2l0.2-0.2h0.2l0.1-0.5l0.2-0.6l0.1-1.5
	c-0.3-1.5-2.2-2.2-2.2-2.2l-1,0l-0.1,0.2l-0.5,0.1l-0.3-0.3h-0.6l0-0.1l-0.7-0.1l-0.1-0.2l-1-0.1l-0.2-0.3h-1.1l-0.2-0.1l-0.9,0
	l-1-0.1l-2.8-0.2l-0.2-0.2l-3.9,0l-0.3,0.2l-2.9,0l-0.2,0.3l-1.6-0.1l-0.2,0.3l-0.9,0v0.2l-1.4,0v-0.3l-0.3-0.1l0,0.4l-0.7-0.1
	l-0.1-0.3l-0.3,0.1l-0.2,0.3l-0.5-0.1l-0.2,0.2l-0.8,0l-0.1,0.3l-1.1,0l0,0.2l-0.3,0.1l-1,0l0,0.2h-0.9l-0.1,0.2l-0.5,0.1l-0.4,0.2
	l-0.2,0.2H465l-0.2,0.2l-0.3,0l-0.3-0.2l-0.5,0l-0.1,0.2l-0.4,0.2l-0.3,0l-0.1,0.3l-0.5,0.1l-0.3,0.1l-0.5,0.1l-0.2,0.2H461h-0.7
	v-0.6l0.3-0.1v-0.4h0.2v-0.3l0.2-0.3l0.6-1.3l0.5-1.2c1.1-2,3.3-4.7,3.3-4.7l2-2c0.2-0.4,2.1-1.8,2.1-1.8l1.3-1l0.7-0.3l0.4-0.1
	L472,29l0.5-0.1l0.4-0.1l0.5-0.2l0.6-0.1l0.2-0.2h0.3l0.5-0.3l0.9-0.3l0.5-0.1l0.3-0.2l0.2-0.3l0.4-0.3l0.3-0.2l1.3-1.2l0.5-0.3
	l0.3-0.3l2.7-2.4l1.9-1.7l2.7-2.4l2.3-2l1.2-1.1l0.4-0.2l0.2-0.2l0-0.8l0.2-0.4l0.4-0.6l0.4-0.5l0.3-0.3l0.2-0.7l0.5-0.8l0.1-0.9
	l0.2-0.2l0.4-0.4h0.3h0.3l0.1-0.2l-0.2-0.3c-0.1-1.9-1.4-4.5-1.4-4.5c-1.1-2.3-3.1-3.3-3.1-3.3h-0.4c-0.5,0.2-5.4,4.1-5.4,4.1
	l-4.8,4.3v0.6l-0.3,0.4l-0.4,0.1l-4.2,4.7l-2.2,2.3l-2,2.7l-0.5,1l-3,3.7l-0.4,0.6l-0.1,0.6h-0.2l0,0.7l-0.4,0.2
	c-0.8,0.5-4.6,7.7-4.6,7.7l-1.2,2.8l-0.6,0.7c0,0,0,0.1-0.5,0.6c0,0,0,0.1-0.1,0.1c-0.4,0.7-0.8,2.9-0.8,2.9l-0.3,0.6l-0.3,0.3
	l-0.2,1.1l-0.8,0.7l-1.3,1.1l-0.5,0.4l-0.1,0.3h-0.7l-0.7,0.4l-1.2,0.9l-0.3,0.4h-0.8l-0.4,0.2l-0.5,0.2c-0.7,0.2-2.4,1.9-2.4,1.9
	l-0.3,0.3l-0.2,0l-0.1-0.2l-0.4,0l-0.1,0.1l-0.1,0.7l-0.2,0.3l-0.5-0.1v-0.2l-0.2-0.1l0,0.5l-0.3,0.2v0.7l-0.7,0.1
	c-0.9,0.4-1.4,1.6-1.4,1.6l-0.2,0.4l-0.3-0.1l-0.5,0.1l-0.3,0.5l-0.4,0.5l-0.4,0.7l-0.4,0.5l-0.8,0c-0.7,0.1-0.7,1-0.7,1v0.5
	l-0.7,0.1v0.1l0.2,0v0.1l0.2,0.2l0.3,0.3v0.3l0.3,0.2v0.9l0.3,0.1v1.8l0.2,0.1v1l0.2,0.2l0.2,0.3l0.4,0.2l0.1,0.2l0.7,0l0.2-0.2
	l0.6-0.1c0.9-0.4,2.2-1.8,2.2-1.8l1-0.9l0.7-0.3l1-0.7l2.3-1.3l0.6-0.6l0.3-0.3l0.1-0.4l0.9,0v-0.3l0.3-0.4l0.3-0.3l0.4-0.2l0.5-0.5
	l0.9-0.6l0.6-0.3l0.6-0.2l0.5-0.4l0.9-0.1l0.3-0.5l0.2-0.4l0.9-0.1l0.2-0.1l0-0.4l0.1-0.1l0.2-0.3l0.2-0.2l0.4-0.1l0.1-0.2l0.6-0.2
	l0.9-0.4l3.9-1.6l0.1-0.2h0.5l0.2,0.6l0.3,0.5v0.4l-0.3,0.3l-0.8,0.7l-2.7,2.3l-5,4.9c-1.1,0.9-3.3,3.7-3.3,3.7l-0.2,0.8l-0.1,0.4
	l-0.2,1.6l0.3,0.1v1l0.3,0.1v0.4v0.9c0.3,1,2.3,1.6,2.3,1.6l3.3-0.1l0.3-0.1l0.9,0l0.4-0.1l1.1-0.1l0.8-0.5l0.2-0.2l0.8,0l0-0.2
	l0.3-0.3l0.5-0.2l0.5-0.4l2-1.4l0.4-0.4l0.6-0.2v0.3l-0.2,0.4l-0.4,0.3l-0.4,0.7l-0.5,1l-0.9,1.7l-1,1.8c-0.3,0.3-2.6,4.6-2.6,4.6
	l-4.2,7.7l-3,5l-0.4,0.7l-0.3,0.2V93h0.3v0.8c0.3,0.9,1.4,2.2,1.4,2.2l0.4,0.3l0.1,0.3h0.3l0.2-0.3h0.3l0.5-0.2l0.4-0.3l0.2-0.2
	l0.4-0.3l0.3-0.2V95l0.7-0.8l1.6-1.2l0.7,0l0.5-0.3l0.1-0.4l0.7-0.6l1.1-1.2l0.7-0.4l0.4-0.3l0.6-0.3l0.1-0.4l0.7-0.7l0.6-0.8
	l2.9-2.4l1.3-1.3l0.2-0.5l0.7-0.1l0.5-0.4l0.2-0.4l0.3-0.5l2.1-1.7l0.7-0.4l0-0.4l0.9-0.1l0.2-0.6l0.2-0.4l0.5-0.4
	c0.2-0.3,6.5-4.7,6.5-4.7l2.8-1.8l0.9-0.4l0.6-0.1l0.7-0.3l0.7-1.1l3.5-3.3l1.5-1.3l1.6-1.5l0.4-0.6l0.8-1.1l2.4-2.5l1.1-1.2
	l0.4-0.5l0.4-0.4l1.7-1.5l2.9-2.4l0.4-0.3l0.3,0l-0.1,0.4l-0.9,1.2l-1.1,2.1l-1.4,2.7l-2,3.8l-0.6,1.5l-1.1,2.3l-0.9,1.8l-2.4,4.9
	l-0.3,0.3l0,1.1l-0.1,0.2l-0.4,0.7l-0.6,1.7l-0.9,2l-0.6,1.4l-0.1,0.5l-0.3,0.4l-0.1,0.3l-0.3,0.5l-0.1,0.5l-0.2,0.8l-0.6,1.3
	l-0.5,1.1l-0.2,0.5v1.6l-0.6,0.6l-0.4,0.8l-0.2,0.7l-0.2,1.1l-0.4,1.3l-0.3,1.1l-0.3,0.8l-0.7,2.5l-0.1,0.5l-0.4,1.2l-0.1,1.1
	c0,0-0.5,1.6-0.5,1.7s-0.9,1.9-0.9,1.9l-0.3,0.6l-0.1,0.6l-0.1,1l-0.3,1.4l-0.1,0.9l-0.2,0.9l-0.5,2.3l-0.5,1.6l-0.2,0.8l-0.2,0.7
	l-1.5,6.1l-0.2,1.4l-0.2,1.1l-0.2,0.2v1.3l-0.2,0.5l-0.1,1.3l-0.2,1.6l-0.7,3.9l-0.3,1l-0.1,0.4l-0.2,1.1l-0.1,1.1l-0.2,0.6
	l-0.1,0.6l-0.2,0.3l-0.1,0.6v0.2l-1.6,7.5l-0.3,0.1l-0.1,1l-0.2,0.4l-0.1,0.8l-0.1,1l-0.1,0.2l-0.1,1.1l-0.2,0.8l-0.1,0.3l-0.1,0.9
	l-0.1,0.3l-0.1,1l-0.1,1.1l-0.2,0.1l-0.1,1.2l-0.2,0.1v1.1l-0.1,0.1l-0.2,0.9l-0.1,0.4l-0.1,1.4l-0.2,0.2l0,1.3l-0.2,0.1l0,1.6h0.6
	l0.2-0.3l0-1h0.2l0.1-0.7l0.1-0.2l0.1-0.5l0.1-0.1l0.2-0.7l0.1-0.4l0.1-0.3l0.1-0.4l0.4-0.9l0.1-0.7l0.3-0.8l0.2-0.2l0-0.6h0.3
	l0-0.7l0.2-0.3l0.1-0.5l0.3-0.5l0-0.7h0.2l0.1-0.3l0.2-0.3l0.1-0.8l0.4-0.9l0.3-0.6l0.1-0.8l0.4-0.7l0.1-0.6l0.6-1.4l0.2-0.7
	l0.3-0.6l0.3-0.8l0.3-0.4l0-0.6l0.1-0.7l0.4-0.7l0.4-0.9l0.2-0.7l0.1-0.5l0.2-0.2l0.1-0.5l0.2-0.9l0.2-0.4l0.4-0.2l0.2-0.3l0.4-0.2
	l0.1-1.1h0.1l0-0.6l0.2-0.2l0.1-0.5h0.2l0-0.7l0.4,0v0.2h0.3l0.1-0.3c0.7-0.5,1.1-1.7,1.1-1.7l0.2-0.5l0.1-0.8l0.2-1.3l0.2-0.5
	l0.3-0.7l0.2-0.6l0.5-1.1l0.5-0.2l0.5-0.5l0.4-0.4v-1.5l0.3-0.7l1-1.9l0.8-1.6l0.3-1.1l0.1-0.5l0.1-1.3l0.2-0.1l0.2-0.8l0.2-0.8
	l0.1-0.2l0-0.1l1.1-3.9l1.2-4.2c0.6-2.4,2.2-7.9,2.2-7.9l0.4-1.3l0.4-0.8l0.3-0.4l0.5-1.7l1.7-4.9l1.9-5.8l1.3-2.9l0.4-0.3l0.3-0.7
	l0.4-0.5l0.1-0.4l0.4-0.9l0.8-1.9l2.1-5c1.5-3.7,4.9-10.4,4.9-10.4l5.7-11.4l2.7-4.9l0.4-1l0.6-0.6l0.1-0.8l0.5-0.8l0.6-0.5l0.3-0.6
	l0.3-0.6l0.3-0.5l0.3-0.3l0.5-0.1l0-0.2l0.2,0l0-0.5l0.1-0.5l0.3-0.1l0.1-0.4l0.5-0.7l1.7-1.6l0.3-0.5l0.3-0.5l0.4-0.3l0-0.6
	l0.3-0.4l0.2-0.4l0.4-0.2l0.5-0.2l0-0.9l0.2-0.1l0-0.5l0.4-0.4l0.2-0.7l0.3-0.1c2.2-1.1,1.8-2.2,1.8-2.2l0.2-0.1V25.3z M467.9,58
	l-1,0.9l-2.7,2.9l-1.6,1.2l-0.6,0.3l-0.4,0.4l-0.3,0.1l0.1-0.3v-0.7l0.4-0.1l0.1-0.7l0.4-0.5l0.3-0.1l1.1-1.1l1.9-1.5l1-0.7l0.7-0.6
	l0.7-0.5c0.2-0.1,0.2,0.1,0.2,0.1L467.9,58z"/>
</svg>
