<?xml version="1.0" encoding="utf-8"?>
<!-- Generator: Adobe Illustrator 22.0.1, SVG Export Plug-In . SVG Version: 6.00 Build 0)  -->
<svg version="1.1" id="Layer_1" xmlns="http://www.w3.org/2000/svg" xmlns:xlink="http://www.w3.org/1999/xlink" x="0px" y="0px"
	 viewBox="0 0 469.9 139.8" style="enable-background:new 0 0 469.9 139.8;" xml:space="preserve">
<style type="text/css">
	.st0{fill:#005498;}
	.st1{fill:#1F447C;}
	.st2{fill:#78BDE0;}
	.st3{fill:#4394C8;}
	.st4{fill:#F26C24;}
	.st5{fill:#EE4722;}
	.st6{fill:#FBDD00;}
	.st7{fill:#FAAD1A;}
	.st8{fill:#FFFFFF;}
	.st9{fill:#010202;}
</style>
<polygon class="st0" points="6.6,23.4 44.2,17.1 44,60.8 0.3,60.8 "/>
<polygon class="st1" points="4.8,34.2 32.8,30.3 32.8,55.3 1.2,55.3 "/>
<polygon class="st2" points="44.2,17.1 81.8,23.5 88,60.8 44,60.8 "/>
<polygon class="st3" points="44.2,17.1 70,21.5 76.5,60.8 44,60.8 "/>
<polygon class="st4" points="44,60.8 44,118 6.5,98.5 0.3,60.8 "/>
<polygon class="st5" points="12.9,66.6 44,66.6 44,104.1 16.5,91.4 "/>
<polygon class="st6" points="44,60.8 88,60.8 81.8,98.6 44,118 "/>
<polygon class="st7" points="44,60.8 76.5,60.8 69.9,104.7 44,118 "/>
<path class="st8" d="M29.2,36.8h-8.4V50h7.8c0,0,6.1-0.1,6.9-5.3v-2.5C35.4,42.3,35.8,37.5,29.2,36.8z M31.4,44.4
	c0,0-0.1,1.7-2.9,2.4l-0.4,0.1h-3.4v-7h3.9c0,0,2.7,0.3,2.9,2.5V44.4z"/>
<path class="st8" d="M61.8,36.8H53l0,17.1c0,0,3.3,0,3.8-3.2v-1l5,0c0,0,4.4,0,5.6-4.1l0.1-0.6l0.1-0.3l0.1-2.7
	C67.6,42.1,67.7,37.5,61.8,36.8z M63.6,44.3c-0.4,2-3.2,2.5-3.2,2.5h-3.5V40h3.6c2.3,0.1,2.9,1.6,2.9,1.6
	C63.8,42.4,63.6,44.3,63.6,44.3z"/>
<path class="st8" d="M21.3,70.9v3.1h7.3c0,0,2.7,0.1,3,2.4c0,0,0.4,2.4-2.1,2.9h-5.3c0,0-3.3,0.5-3.4,3.6v5.3h14.7v-0.9
	c0,0-0.5-2.2-3.2-2.3l-7.6,0l0-1.1c0,0,0.2-1.4,1.6-1.5l2.4-0.1c0,0,4.4,0,5.8-2.3c0,0,0.8-1,0.9-2.7v-1.8c0,0,0-2-2.3-3.5
	c0,0-1.4-1.2-5.3-1.2H21.3z"/>
<path class="st8" d="M58.4,71.7L55.7,75h2.7v13.2c0,0,3,0.1,3.8-3.3l-0.1-13.2H58.4z"/>
<path class="st9" d="M114.9,53l-0.1,0.7h0.2l0.1,1.1l0.2,0.4l0.2,0.3l0.1,0.1l0.1,0.7v0.6l0.1,0.2l0.4,0.6l0.2,0.3l0.1,0.6h0.3
	l0.2,0.1l0.1,0.2l0.1,0.3v0.4l0.2,0.1l0.3,0.2l0.1,0.3h0.2l0.1,1h0.5l0.4,0.2l0.5,0.2l0.1,0.3h0.3v0.4l0.3,0.3l0.4,0.2l0.1,0.2h0.3
	l0.1-0.3l0.2-0.2l0.1-0.2l0.2-0.2l0.2,0.1l0.3,0.4l0.9,0.3l0.5,0.2h0.2v0.5l-0.1,0.3l0.1,0.1l0.3-0.3l0.4,0l0.2-0.2l0.3,0v-0.1
	l1.2-0.1l0.3,0.3l0.3,0.1l0.4,0.1l0.1-0.3l0.4-0.1l0.5-0.1l0.1-0.1l1.9,0l0.5-0.1l0.7-0.4l0.6-0.3l0.2-0.2l1.2-0.1l0.4-0.3l0.1-0.7
	l0.2,0l0.5,0l0.5-0.4l0.2-0.4l0.1-0.2l0.6,0.1l0,0.4l-0.1,0.2l-0.2,0.4l-0.1,0.3l-0.2,0.4l-0.4,0.7l-0.1,0.6l-0.1,0.7l-0.5,0.6
	l-0.2,0.4l0,0.7l-0.1,0.3l0,0.4l-0.2,0.3l-0.4,0.9l-0.2,0.8l-0.2,0.1l0,0.7l-0.1,0.3l-0.1,1.1l-0.1,0l-0.1,1.1l-0.1,0l-0.2,0.8
	l-0.3,0.5l-0.1,0.5l-0.2,0l0,0.5l0.2,0.1l0,0.2h-0.1l-0.1,0.6l-0.1,0.1l0,0.3l-0.2,0.4l-0.1,1l-0.1,0.1l-0.1,1.1l-0.1,0.1l-0.2,1.4
	l0.1,1.6l-0.1,0.1l-0.2,1.9l-0.1,0.1l0,1.6l0.1,0l0.1,1.4c0.1,3.3,3.2,6.4,3.2,6.4l1.2,0.1v0.1l0.3,0.5l0.9,0.1l0.9,0.1l0,0.1
	l0.4,0.1l0.6,0.2l0.3,0.1l0.4,0l0.3,0.1l0.8,0.1l0.1,0.1l1.8-0.1c1.1-0.5,3.4-2.3,3.4-2.3l0.2-0.1l0.4-0.1l0.1-0.6l0.1,0l0.2-0.3
	l0.3-0.2l1.3-0.1l0.1-0.3l-0.5-0.1l0-0.3l0.4,0L148,89l0.1-0.1l1.6-2.3l2-2.2l1.1-1.2l0.5-0.4l0.5-0.6l1.5-2l0.4-0.7l0.3-0.5
	l-0.1-0.8l0.5-0.2l0.5-0.4l0.5-0.4l0.3-0.6L158,76l0.3-0.4l0.3-0.4c0,0,0.3-0.7,0.3-0.5c0,0,0,0,0,0c0.1,0.1,0.5-0.1,0.5-0.1
	l0.3-0.4l2.9-5.3l3.9-5.8l1.4-2.2l3.2-4.3l0.3-0.1l0.1,0.1l-0.1,0.7l-0.2,0.1l-0.1,0.5l-0.1,0.8l-0.2,0.4l-0.3,0.6
	c0,0-0.2,0.8-0.2,0.7s-0.2,0.8-0.2,0.8l0,0.3l-0.1,0.3l-0.2,1.8l-0.2,0.3l-0.4,0.6l0,1.3L169,66l-0.2,0.2l-0.1,0.6l-0.2,1.4l0,0.5
	l-0.1,0.2l-0.1,0.5l-0.2,0l0,0.7l-0.2,0.2l-0.1,0.8l-0.2,0.2v2l-0.2,0l-0.1,1.3c0,0-0.1,0-0.2-0.1c0-0.1,0,0.9,0,0.9l-0.2,0l0.1,0.7
	l-0.2,0.2l-0.3,1.4l-0.3,1.8l-0.2,1l-0.1,0.1l0,1H166l-0.1,1l-0.1,1.7l-0.1,0.2l-0.1,0.4l0.1,0.1l0,0.2l-0.1,0.6l-0.1,1.3l-0.1,0.1
	l-0.1,2.9l-0.1,0l-0.1,0.3l-0.2,0.5v0.3c-0.1,0.1,0,3.8,0,3.8h-0.1l-0.1,0.6l-0.2,0l0,4.8l-0.2,0.1l0.1,2.8l-0.2,0l0,1.1l-0.1,0.1
	l0,1.4l0.2,0.2l-0.1,6l-0.1,2.2l-0.2,0.1l-0.1,2.2l-0.1,0.1v2.5l0,4.5l0.2,0.1l0.1,2.1l0.2,0.1l0,3.1c0,0.2,0.5,0.7,0.5,0.7l0.3,0.1
	l0.7-1.2l0-2.5l-0.1-0.2l-0.1-1.9l-0.3-0.1l0-1h0.2l-0.1-0.5l0.3-0.1l0.2-0.3l0.2-0.4l-0.2-0.1l-0.1-1.1l0.2-0.1l-0.1-0.5l0.1-1
	l1-3.6c0.2-0.5,1.1-3.4,1.1-3.4l0.3-0.9c0.2-0.9,0.7-4.7,0.7-4.7l0.2-0.2l0.1-2.8l0.1-1.2l0.2-1.4l0.1-0.2l0.2-1.3l0.2-0.9l0.1-0.4
	l0.4-0.1l0.1-0.4l0-0.6h0.3l0-0.8h0.2l0.2-1l0.4-1.6L172,92l1.2-3.9l0.2-0.5l0.1-0.3h0.4L174,87h0.1v-0.3l0.1-0.5l0.4-1l0.3-0.8
	l0.3-1.6l0.2-0.2l0.1-0.7l0.1-0.1l0-0.6l0.2-0.2l0.1-1l0-1.7l0.4-1l0.5-0.6l0.5-0.7l0.3-0.6l0.1-0.8l0.1-0.7l0.2-0.3l0.1-0.4
	l0.6-3.1c0.2-0.9,1.1-2.3,1.1-2.3l0.1-0.2l-0.1-0.2l-0.1-0.1l-0.2-0.4l1-0.1c0,0,0.1-0.9,0.1-1c0-0.1,0.2-0.1,0.2-0.1l0-0.7l0.5-0.1
	l0.2-0.2l0.2-0.1l0.4,0.1l0.1,0.1l0,0.1l0.3,0.1l0-0.2l0-0.6l0.5-0.5l0.4-0.4h0.4l0.4,0l0.1-0.6c0-0.4,0.7-1,0.7-1l0.5-0.1l0.3-0.2
	l0.5-0.1l0.1-0.3l0.1-0.4l0.5-0.4l1.4-0.8l1.8-1.3l3.1-2l7.3-5.4l0.3-0.1l0,0.3l-0.1,0.3l-1.8,4.2c-0.7,1.6-2,6.3-2,6.3l0,1.5
	l-0.1,0.1l0,1.9l0.1,0.1l0.1,0.6c0.2,2.5,1.8,4,1.8,4l0.6,0.3l1.3,1.1l0.4,0l0.4,0.1l0.2,0.4l0.4,0.4l1.1,0l0.1-0.2l0.1,0
	c2.2-0.1,4.2-1.7,4.2-1.7l2-2l5.7-5.5l5-5.2l0.3-0.1l0.1,0.3l-0.1,0.4l-0.2,0.5l-0.4,1.8l-0.8,2.2l-0.6,2.4l-0.9,3.2l-0.6,2.3
	c-0.2,0.5-1.3,8.7-1.3,8.7l-0.1,4l-0.1,0l-0.1,0.6c0.2,0.7,0.9,1,0.9,1l0.5,0l0-0.2l0.3,0l0.1-0.1c-0.1-0.9,0.5-5,0.5-5
	c0.6-2.6,1.5-5.6,1.5-5.6L220,73l1-0.8l0.3-0.9L223,68c1.5-3.1,3.9-6,3.9-6c0.4-0.3,0.6-0.9,0.6-0.9l2.1-3.8l3.6-6.7l4.5-7.6l0.3,0
	l0.3-0.2l0.2-0.1l0.1-0.5l1.1-1.2l0.6-0.7l0.8-0.9l0.3-0.3l0.2-0.4l-0.3-0.1l0-0.6l0.1-0.2V37c-1.9-2-3.9-1.7-3.9-1.7l-0.1-0.1
	l-0.4-0.3l-2.2,0l-0.3,0.1l-0.9,0l-0.2,0.2c-0.3,0.2-3.8,5.4-3.8,5.4l-3.1,4.9l-0.4,0.9l-0.5,0.7l-0.8,0.6l-3.8,3.5l-5,4.6l-4.2,3.5
	l-3.7,3.3l-2.1,1.9l-0.2,0.2l-0.2-0.2l0.1-0.3l0-0.6l0.3-0.3l0.2-1l0.2-0.4l0.3-1.1l0.8-2l0.9-2.2l0.4-0.5l0.3-0.8l0.3-1.3l0.6-1
	l1.7-3.5l0.3-0.9l0.2-0.4l0.4-0.3l0.4-0.4l0.5-0.6l0.1-0.7l0.3-0.1l0.7-0.5l1.3-1.4l0.4-0.6c0.4-1.3-0.1-1.9-0.1-1.9l-0.6-0.4
	l-0.3-0.3l-0.2-0.5l-0.6-0.1l-0.8-0.3l-0.6,0l-0.3-0.3v-0.3L212,39l-0.5,0l-0.4-0.2l-0.4-0.4l-0.2,0c-0.2,0-1.3,1.1-1.3,1.1
	c-0.3,0.3-2.1,2.3-2.1,2.3l-0.4,1l-1.5,1.4l-0.8,1.1l-0.5,0.2l-0.6,0.4l-1.8,0.7l-2.6,1.2l-3,1.4l-4.8,2.2l-1.9,0.8l-3.4,1.9
	l-0.5,0.5l-1-0.1l0.1-0.5l0-0.5l0.3,0l0-0.6l0.3-0.1l0.1-0.6l0.1-0.4l0.3-0.8l0.4-1l0.6-0.9l0.4-0.6l0.3-0.4l0.1-1.1l0.2-0.4
	l1.4-2.5l2.5-5.1l0.6,0l0.1-0.2l-0.2-0.2l0.1-0.4l0.6-0.2l0-0.9c0.1-0.3,1.6-2.5,1.6-2.5l0.4-0.4l0.2-0.4l0.1-0.4l0.1-0.4l0.1,0.1
	l0.4-0.4l0.6-0.5l0.7,0.1l0.1-0.5l-0.2-0.2l0-0.9l0.4,0l0.2-0.1l-0.1-1.3l0.1,0l0.4,0l0.2-0.3l0.8,0l0-2l0.3-0.2l0.2,0l0.1-0.2
	l0.5-0.1l0-0.1v-0.5l0.2-0.3l0.4-0.8l1.1-1.3l0.1-0.4l0.4,0l0.2,0.2l0.3-0.2l0.1-0.6l0.8-1.1l0-0.6l0.1-0.5l0.2-0.4l0.6-0.1l0.1-0.3
	l0.2-0.1l0-0.2l0.1-0.7l0.4-0.7l0.5-0.6l0.5,0l0.1-0.5l0.2,0l0-0.9l0.2-0.1l0-0.2c0.5-2.3,2.4-3.7,2.4-3.7l0.5-0.1l0.3-0.1l0.4-0.2
	l0-0.5l0.4-0.4V8.3c-0.1-0.6-1.1-2.2-1.1-2.2l-0.2-0.6l-0.8-0.1l-0.1,0.2h-0.6l-0.2-0.2l-0.6,0.1V5.3c-2-0.5-4.5,1.3-4.5,1.3
	c-0.6,0.4-3,3.9-3,3.9l-0.9,0.1l-0.1,0.3h-0.2v1.1h-0.3l-0.3,0.1c-0.4,0.1-2.4,2.1-2.4,2.1l-0.2,0.5l-0.2,0.6h-0.3l-0.6,0.4
	l-0.4,0.5l-0.4,0.6l-0.5,0.5l-0.4,0.1l-0.3,0.7l-0.5,0.9l-0.8,1l-1.1,1.6l-0.6,0.8l-0.4,0.8l-0.3,0.3l-0.5,0.5L187,24l-0.2,0.3v0.8
	l-0.4,0.4l-0.8,1l-0.3,0.3h-0.4l-0.1,0.1v1L184,29l-0.3,0l-0.2,0.1l-0.1,0.3v0.3l-0.3,0.5l-0.3,0.1l-0.2,0.2l-0.4,0V31l-0.2,0.4
	l-0.2,0.4l-0.4,0.4l-0.4,0.4v0.9l-0.1,0l-0.2,0.2l-0.4,0l-0.3,0.3v1.1l-0.1-0.1l-1,0.8v0.5l-0.3,0.3l-0.3,0.3l-0.3,0.6l-0.2,0.4
	l-0.2,0.3l-0.4,0.5l-0.3,0l-0.1,0.6l0.2,0.2l-0.1,0.2l-0.3,0.2l-0.1,0.5l-0.4,1.1L175,43l-4.1,4.9l-4.4,5.4l-3.4,4.2l-3.8,4.8
	l-3.7,4.9l-1.3,1.6l-1.9,2.5l-2.7,3.8l-0.8,0.9l-0.7,0.7l-0.7,1l-1.4,1.9l-0.3,0l-0.4,0.1l-0.4,0.6l-0.6,0.6l-0.8,1.2l-1.2,1.1
	l-1.8,1.7l-0.6,0.5h-0.2l-0.2-0.2v-2l0.1-0.3l0.1-0.9l0.2-0.8l0.5-2.2l0.8-2.1l0.4-0.9l0.7-1.7l-0.1-0.6l0.1-0.6l0.2-0.2l0.2-0.4
	l0.1-0.4l0.2-0.4v-0.3l0.1-0.2l0.1-0.2l0.2-0.4l0.2-0.1l0.1-0.4l0.1-0.3l0-0.8h0.5l0-1.3c0.7-0.8,2.6-5.2,2.6-5.2l2.5-4.1l0.6-0.5
	l0.1-0.4l0-0.6l0.2-0.3l0.7-0.8l0.5-0.1l0.1,0.2h0.2l0.1-0.8l0-0.3l0.3-0.2v-0.4l0.1-0.7l0.2-0.1l0-0.3l0.5-0.5l0.1-0.4l0.8-0.1
	l0.1-0.9l0.1-0.2l0.4-0.8l0.4-0.7l0.7-0.8l0.2-0.4l0.9,0l-0.1-1l0.4-0.1l0.9-0.8l0.2-0.4h0.7l0.2-0.3l-0.1-0.5l0.1-0.4l0.2-0.3
	l0.6-0.7l0.2-0.2h0.8l0.3-0.2l0.5-0.6l0.9-0.9l0.4-0.7l0.1-0.5l0.2-0.1l0-0.9l0.7,0v-0.3l0.3-0.3l0.3-0.7l0.4-0.9l0.1-0.4v-0.4
	l0.8,0l0.3-0.2l0.9-0.4v-0.6l0.5,0l0.3-0.1l-0.2-0.3l-0.4-0.2l0-0.2l0-0.3h0.1l0.1-0.3l0.3-0.2l0.1-0.3v-1.5l-0.2-0.3v-0.2
	c-0.1-0.5-0.6-1.3-0.6-1.3l-1-1.5l-0.8-1l-0.2-0.5l-0.2,0.1l-0.1,0.3l-0.3,0.2l-0.1,0.2l-0.1,0l-0.3-0.1l-1.6,0v-0.1l-0.3-0.3
	l-0.2-0.2l-0.5-0.1l-0.3,0.1l-0.2,0.3l-0.4,0.4l-0.8,0.3l-0.3,0.3l-0.3,0.1l-0.1-0.3l-1.8,0.1v0.1l-0.2,0l-0.1-0.1l-0.3,0v-0.1
	l-0.5-0.1h-4.2l-0.1,0.2h-0.8l-0.1,0.2l-1.1,0.1v0.1l-0.5,0.1l-0.2,0.2l-0.2,0.2l-0.5,0l-0.1-0.2l-0.5,0l-0.1-0.3h-0.2l-0.1,0.2
	h-0.3l-0.5,0.3l-0.4,0.3l-0.2,0.4h-0.8l-0.4,0.1l-0.5,0.5l-0.6,0.6l-0.5,0.2l-0.2,0.1h-1l-0.4,0.3l-0.1,0.6H141l-0.4,0.1l-1,0.5
	l-0.4,0.4h-0.3l-0.2,0.3l-0.5-0.1l-0.2-0.2l-0.8,0.1l-0.1,0.3l-0.7,0.3l-1.3,0.7l-0.8,0.8l-0.1,0.2l-0.2,0.1l-0.2-0.2l-0.8,0v-0.2
	h-0.1l-0.1,0.2l-0.1,0.3l-0.2,0.3l-0.2,0.2v0.2l-0.1,0.1l-0.1-0.1l-0.4-0.1h-0.4l-0.1,0.1l-0.2,0.1v0.5l-0.2,0.1h-0.8l-0.4,0.5
	l-0.9,1l-0.3,0.4l-0.1,0.2l-0.2,0.1l-0.1-0.2l-0.2-0.1h-0.2l-0.1,0.2l-0.2,0.1l-0.1,0.4l-0.2,0.3l-0.3,0.3l-0.2,0.1l-0.4,0.2
	l-0.8,0.1l-0.2,0.1c-0.9,0.2-0.7,1.2-0.7,1.2l-1,0.1V43h-0.2v0.3l-0.2,0.1v0.3h-0.7v0.4h-0.2v0.6l-0.9,0.1l-0.1,0.6h-0.2v0.4h-0.8
	l0,0.6l0.2,0.1V47l-0.9,0.1v0.6l-0.2,0.2v0.3l-0.3,0v-0.2h-0.2L119,48h-0.3l-0.1,1h-0.1l-0.1,0.2l-0.3,0.2l-1,0.7l-0.1,0.7h-0.2
	l-0.1,0.1l-0.6,0.5v1h-0.2l-0.4,0.2L114.9,53"/>
<path class="st9" d="M280.5,34.8l-1.3-0.2l-3.4-0.5c-0.9-0.1-1.3,0.9-1.3,0.9l-2.5,4.7l-0.7,0.7l-0.2,0.2l-0.4,0.1l-1.1,0.5
	c-0.6,0.1-5,2.7-5,2.7l-6.4,4.3l-0.9,0.5h-0.4l0-0.3l0.4-0.7l0.4-0.8l0.2-0.8l0.4-1.5l0.2-1.7c0-1.6-1-2.1-1-2.1v-0.4l1.1-0.9
	l0.4-0.7c0.5-0.8,0.4-1.6,0.4-1.6c-0.1-0.5-1.5-1.2-1.5-1.2l-0.8-0.3l-0.4-0.2l-0.3-0.2l-0.8-0.2c-1.5,0-4.1,2.2-4.1,2.2l-1.3,1
	l-0.3,0.4l-0.3-0.1c0,0,0.4,0.2-0.2-0.1c0,0,0,0-0.1,0c-0.6-0.3-1.2,0.1-1.2,0.1l-0.8,0.6l-0.3,0.3l-0.4,0l-0.7,0.1l0,0.4l-0.2,0.3
	l-0.4,0.5l-0.6,0.9l-0.1,0.4l-0.3,0.4l-0.1,0.3l-0.1,1.6l0.2,0.1v0.4l-0.2,0.1l-0.3,0.6l-1.3,2.3l-0.9,1.2l-0.5,0.5l-0.5,0.7
	l-0.3,0.5l-0.2,0.4c-0.5,0.9-2.1,4.6-2.1,4.6l-0.2,0.6l0,0.5l-0.2,0.2l0.1,1.5L238,59v0.5v0.3c0.7,1.7,1.7,2,1.7,2l1.9,1.9l0.8,0.5
	l2.1-0.1l0.3-0.2c1.8-0.5,3.2-2.1,3.2-2.1l0.7-0.6l0.4-0.2c0.5-0.4,2.4-2.5,2.4-2.5c2.1-2.5,3.1-4.4,3.1-4.4l0.4,0l0.2,0.2l0.5,0.4
	c0.8,0.5,2,0,2,0l0.4-0.3c1.4-0.7,5.3-3.6,5.3-3.6l5.2-3.5l0.1,0.4l-0.3,0.4l-0.2,0.6l-0.4,0.8l-0.2,0.9c-0.8,1.4-1.9,7.4-1.9,7.4
	l-0.1,1.6l-0.1,0.1l-0.1,1.7l-0.4,0.4l0.1,1.2l0.4,0.1l0.3,0.2v1.1h0.6l0-0.1l0.5-0.2L268,63l0.4-0.4l0.1-0.6h-0.3l-0.1-2.1l0.2-0.2
	v-0.4l0.3-0.4l0.2-0.4l0.2-0.5c0.6-0.8,2.6-3.9,2.6-3.9l0.7-1.6l3.4-6l3.1-5.3l1.6-2.4l0.6-1.2C281.7,35.7,280.5,34.8,280.5,34.8z
	 M251.3,48.6c0,0-1.4,3.2-3.3,5.9c0,0-1.5,2-1.9,2.2h-0.2l0.1-0.2l0.1-0.4l0.2-0.5c0,0,2.6-4.5,3.3-5.5l1.1-1.5l0.3-0.4l0.1-0.3h0.1
	l0.1,0.4L251.3,48.6z"/>
<path class="st9" d="M297.7,10.8c0,0,0.4-0.7,0.8-0.7c0,0,2-0.2,3.5,0.9c0,0,2.5,1.3,2.9,3.9l0.2,0.1l-0.1,0.4l-0.2,0.1l-0.1,0.7
	l-0.2,1c0,0-1.4,1.7-1.8,2.1l-1.7,2.8l-3,5l-3.9,6.2c0,0-3,4.6-3.9,5.7l-0.1,0.5V40l-0.4,0.3l-0.4,0.3l-0.3,0.3v1.6l-0.3,0.2
	l-0.4,0.2l-0.1,0.4l-0.3,0.7l-0.4,1.8c0,0-1.1,3.4-1.2,3.5c0,0-0.6,1.1-1,1.6l-0.1,0.4l-0.9,2.1c0,0-1.9,2.9-2.3,3.3l-0.4,0.1v-0.2
	l-0.5,0.1l-0.8,2.4c0,0-1.1,3.4-1.5,4l-0.2,0.4l-0.6,0.5l-0.7,0.8l-0.3,0.6l-0.6,1.1c0,0-1.1,1.4-1.6,1.7l0.1,0.5
	c0,0,0.2,2.6-0.3,3.8l-0.8,2.4l-3.9,8.6l-1.2,2.6l-0.6,1.5l0.1,0.4l0.4-0.3l3.4-2.8c0,0,4.5-3.7,8.2-4.1c0,0,3.1-0.3,3.4,0.2
	c0,0,0.6,0.3,0.8,2l0,0.6l-0.2,0.2l-5.2,7.5l-6.3,8.8l-4.4,6.1l-1.3,1.9l-0.3,0.4h0.3l0.4-0.2l1.2-0.6l1.5-0.7l0.3-0.1l0.1-0.5
	l0.3-0.1h0.4l0.2-0.2l0.4-0.1l1-0.5c0,0,7.8-4,10-4.8l8.2-3.3l3-1l1.3-0.5l0.5-0.2l-0.2,0.4l-0.4,0.3l-1.3,1.5c0,0-1.3,0.7-1.9,0.8
	l-0.5,0l-0.2,0.4l-1.2,0.7l-5.9,3.7l-0.6,0.2l-2.4,1.7l-10.1,6.1l-2.3,1.4l-3.5,2.4l-0.8,0.3l-0.9,0.4l-0.8,0.3l-0.5,0.1l-1.6,0.8
	l-0.3,0.2l-0.1,0.2h-0.4L260,117l-1.3-1.6l-0.6-0.5l-1-1c0,0-0.3-0.8-0.1-1.1c0,0,0.7-0.7,0.8-0.8c0.1-0.1,0.5-0.4,0.5-0.4l0.3-0.2
	l1-1.6l0.7-1.2l0.7-1.1l0.5-0.5l0.5-0.4l0.1-0.6l0.9-0.8l0.4-0.5l0.2-0.4l0.1,0v-0.6l0.2-0.1l0.4-0.2l0.4-0.2l0.3-0.5l0.1-0.3
	l0.1-0.5l0.6-0.5l0.4-0.4l0.2-0.1l0.1-0.5l0.3-0.4l1.6-1.7l1.4-2l0.7-0.8l0.4-0.3l0.3-0.4l0.3-1.1l0.7-0.9l1.6-2.2l0.8-1.3l0.7-0.9
	l0.4-0.6l0.3-0.2l-0.1-0.2l-0.5,0l-0.9,0.7l-4.3,3.9c0,0-1.7,1.7-4.2,2.6l-0.5,0.2h-0.2l0,0.2l-0.5-0.1c0,0-2.4-1.5-2.9-2.9
	l-0.2-0.7l0.1-1.5c0,0,2-4.5,2.5-5.3l3.6-8.3l0.5-1.1l0-0.4l0.1-0.2l-0.1-0.2l-0.4,0l-0.5,0.6l-3.6,2.3l-0.3,0.3l-0.6,0l-0.4,0.3
	l-0.2,0.3l-0.5,0.3l-0.7,0.7c0,0-0.6,0.5-1,0.5L260,80l-0.7,0c0,0-0.4-0.6-0.8-1.7l-0.9-2.1l-0.5-1l-0.4-0.4l-0.2-0.3v-0.6l1.1-0.6
	l0.4-0.2l0.4-0.1l0.7-0.5l2.6-2.5l0.5-0.1l0.7-0.8l0.2-0.2l0.5-0.3l1.7-0.7l2.3-0.8c0,0,1.4-0.4,2.1-0.4c0,0,2.4-0.1,2.8,0.1
	l0.3,0.1l0.5-0.1l0.3-0.3c0,0,2.3-2.3,3.3-5c0,0,0.6-1.3,1.8-5.5l0.9-3.8l0.5-2.2l1.3-4.9l1.1-4l0.4-1.2l0.4-2l0.6-1.3l0.1-0.8
	l0.4-1.1l0.5-1.1l0.4-1.3l0.4-0.6l0.2-0.4l0.1-0.7l0-0.6l0.7-1l1.9-3.6l0.9-1.7l0.8-1.2l0.4-1.4l0.6-0.8l0.2-0.3l0.6-0.7l0.3-0.3
	l0.1-0.5c0,0,1.6-2.6,2.2-3.3l1.5-2.1l0.6-1l0.4-0.6L297.7,10.8z"/>
<path class="st9" d="M303.5,40.4l0.1-0.5l0.3-0.4h0.5l0.9-0.1l-0.1-0.6h0.3l0.5,0.4h0.2l0.2-0.4l0.2-0.4l0.5-0.1l0.6-0.4l0.7-0.4
	l0.3-0.2v-0.4h0.7l0.3-0.2l0.4-0.3l0.3-0.3l0.3-0.2l0.2-0.3l0.2,0.1l0.2,0.2l0.2,0.3l0.4,0l0.1-0.2L312,36l0.2,0.1l0.1-0.2l0.6,0
	l0.1-0.4l0.6-0.5l0.2-0.2h1l0.2-0.1l0.1-0.7h0.3l0.3,0.3v0.2h0.2v-0.2l1.1,0l0.2-0.2l0.1-0.2v-0.4h0.2l0.4,0.4l0.3,0.3v0.2l0.4-0.1
	l0.1-0.2h0.2v-0.3l0.6,0l0.1,0.2h0.1v-0.3l0.9,0l0.3,0.2l0.1-0.2l0.5,0l0.1,0.2l0.7,0v-0.2l0.5,0v0.3l0.2-0.1v-0.5h0.3l0.2,0.3
	l2.4,0.7c0,0,3.7,1.5,4.4,2l2.2,1.4c0,0,0.5,0,0.7,0.8l0.5,1.4l0.3,0.9l0.1,0.8h0.2v1.6h0.2l-0.1,0.8v0.2l-0.1,0.2l-0.1,0.7
	l-0.1,0.4l-0.2,0.5l-0.3,0.4h-0.2l0,0.9l-0.2,0.4l0,0.8l-0.1,0.2l0,0.4l-0.2,0.2l0,0.6c0,0-0.6,0.9-0.9,1.1l-0.1,1.1l-0.4,0.1
	l-0.3,0.1l0,0.3h-0.2l0,0.9l-0.3,0.1l-0.4,0.5l-0.4,0.3l-0.3,0.6l0,0.5l-0.2,0.1l0,0.6l-0.2,0.1l0,0.5h-0.3l0-0.3l-0.2,0l-0.1,0.6
	l-0.3,0.7l-1.2,1.8l-0.4,0.7l-0.4,0.5l-0.1,0.6l-0.2,0.1l-0.1,0.4l-0.2,0.5l0,0.2h-0.4l-3,6.1l-0.3,0.2l0,1.1h-0.1l-0.1,0.6
	l-0.3,0.5h-0.2l0,1.2l-0.5,0.2l-0.1,0.5l-0.3,0.1l0.1,0.4l0.3,0.2l0.3,0.2l0.1,0.1l0,0.4H321l0,0.6h-0.3l0,1.6h-0.1l0,1.6l-0.3,0.2
	l-0.1,0.6h-0.6l0.1,0.6h0.1l0,0.4H319l-0.3,0.3l-0.5,0.7l-0.2,0.3l-0.1,0.2h-0.6l-0.1-0.1l-0.2-0.2l-0.2,0v0.2l-1.6,0l-0.2-0.6
	l-0.2-0.3l-0.3-0.4l-0.3-0.4l-0.4-0.1l0-1.1l-0.1-0.1l-0.1-0.6l-0.3-0.5L313,77l-0.3-0.1l-0.2-0.4l0.1-0.2l0.3-0.1v-0.2l0.1-0.3
	l0.3-0.5l0.3-1l0.2-0.5l0.3-0.5l0.3-0.5l0.5-0.5l0.2-0.3l0.3-0.6l0.2-0.8l0.4-1.1l1-3.2l0.7-1.5l0.8-3l1.7-5l1.4-4.2l0.2-1.3
	l0.3-1.4l0.3-1v-0.6l0.2-0.1l0.1-0.8l0.1-0.1l0.1-0.8l0.1-0.2l0-1.2h-0.7l-0.2-0.2h-0.4l-0.1-0.2l-0.6,0L321,45l-0.4,0.2l-0.3,0
	l-0.3,0.2l-0.2,0.3l-0.4,0l-0.1,0.2v0.3l-0.1,0.2l-0.1,0.2l-0.4-0.1l-0.1-0.2l-0.5,0l0,0.2l-0.5,0v0.1l-0.6,0.1l0,0.1l-0.5,0l0,0.5
	l-0.2,0.4l-0.2,0.2l-0.9,0.1l-0.1-0.4l-0.3,0l-0.4,0.4l-0.7,0.2l-0.1,0.2l-0.5,0l0,0.2l-1,0.1l-0.2,0.3l-0.4,0.2l-0.4,0l-0.2,0.1
	l-0.2,0.3l-0.3,0l-0.5,0.1l-0.2,0.5l-0.5,0.4l-0.6,0l-0.1,0.2c0,0-0.8,0.2-1.7-0.4l-0.8,0l-0.1,0.1h-0.3l-0.1-0.4l-0.3,0.1l-0.1,0.2
	l-0.1,0l-0.1,0.2l-0.2-0.1l-0.1-0.1l-0.4,0l-0.2-0.3l-0.6,0.1l-0.1,0.2H303v0.2l-0.2,0v-0.7l-0.2-0.1v-0.2l-1,0l-0.1-0.1l-0.3-0.5
	l0.1-0.7l-0.2,0v-0.3l-0.8-0.2l-0.1-1.1l-0.1-0.3v-0.2l-0.3-0.2l0.1-1.3l0.1-0.4l0.1-0.4l0.2-0.4l0.2-0.4l0.2-0.1l0-0.7l0.3,0
	l0.3-0.1l0.4-0.4l0.1-0.4l0.3-0.4l0.4-0.4l0.3-0.4h0.3L303.5,40.4z"/>
<path class="st9" d="M346.9,31.1l0.1-0.3h0.6h0.3v0.1h0.6l0.3,0.1l0.6,0.3l0.3,0.4l0.5,0.3l0.4,0.2h0.3v0.3h0.5l0.1,0.4v0.6l0.1,0.6
	l0.1,0.1v1.5l0.1,0.1l0.3,0.3l0.1,0.3v0.9l-0.3,0.6l0,0.4l-0.1,0.1l-0.1,0.4l-0.3,0.4l0,0.3l-0.2,0.1l-0.2,0.7l-0.2,0.2V41l-0.2,0.1
	l-0.1,0.5l-0.1,0.2l0,0.6l-0.2,0.1l0,1.7l-0.4,0.1l-0.4,0.2v1l-0.2,0.1v0.6l-0.6,0.1l-0.2,0.2l0,0.6l-0.2,0.2l0,0.4h0.2l-0.1,0.3
	l-0.3,0.2l-0.1,0.7l-0.2,0.5l-0.3,0.3l-0.2,0.3l0,0.3l-0.1,0.5l-0.4,0.4l-0.2,0.2l-0.7,1.2l-0.2,0.4l-0.2,0.3l-0.5,1.2l-0.4,0.9
	l-0.2,0.5l-0.2,0.3l-0.2,0.7l-0.2,0.3l-0.4,0.5l-0.5,0.6l-0.2,0.4l-0.4,0.6l-0.9,1.9l-0.5,1.2l-0.2,0.8l-0.1,0.3h-0.2V64l-0.2,0.3
	l-0.2,0.3l-0.3,0.5v0.6l0.1,0.6l0.1,0.3l0.3,0.6l0.1,0.3l-0.1,0.1V69l-0.2,0.1l-0.1,1.2l0,1c0,0-0.1,0.6-0.9,0.8v1h-0.4v-0.2l-0.6,0
	v0.5h-0.7v-0.2l-0.1,0l-0.1,0.2l-0.3,0.2v0.1h-0.7v-0.3l-0.3-0.3l-0.4-0.3l-0.3-0.3l-0.4,0l-0.1-0.2v-1.4l0.2-0.1l0-0.2l-0.1-0.3
	l-0.2-0.2l-0.1-0.5l-0.1-0.2v-1.6l0.2-0.3l0.3-0.5l0.1-0.1l0.1-2.8l0.2-0.1l0-1.5l0.2-0.1l-0.1-1.3l0.2-0.3l0.1-1.3l0.2-1.2l0.1-0.2
	l0-1l0.2,0l0.1-1.1l0.1-0.2l0.1-1h0.1l0.1-0.9l0.2,0l0.1-0.9l0.2-0.6l0-0.4l0.1-0.1l0.1-0.4l0.2-0.5l0.2-0.5l0.1-0.1l0-0.5l-0.2-0.2
	l0.1-0.3l0.1-0.3l0.3-0.3l0.3-0.2l0.2-0.3l0.1,0l0-0.2l-0.4,0l0-0.3l0.3-0.4l0-0.4l0.1-0.3l0.2-0.1l0.1-0.2l0.2-0.2l0.1-0.3l0.2-0.5
	l0.2-0.4l0.1-0.3l0-0.2L340,44l0.2-0.1v-1l0.3-0.2l0.2-0.2l0.1-0.2l0.1-0.4l0.2-0.7l0-0.3l0.4-0.2l0.3-0.4l0.1-0.3l0-0.9l-0.2-0.1
	l0-0.3l0.2-0.1l0.2-0.4l0.2-0.4l0.3-0.3l0.1-0.4l0.2-0.2l0.1-0.4l0.1-0.1l0.1-0.5l0.4,0l0.1-0.2l0.1-0.4l0.1-0.3l0.2-0.1l0.2-0.2
	l0-0.4l-0.2-0.1l0-0.1l0.1-0.1l0.2-0.1l0.3-0.4l0.3-0.1l0.3-0.1l0-0.5l0.4-0.5l0.4-0.5l0.6-0.5l0.2-0.1L346.9,31.1z"/>
<path class="st9" d="M369.6,24.3c0,0-0.1-1.5,0.7-2.7l0.9-1.1l1.5-1l0.8-0.4l0.5-0.3l0.6-0.5l0.3-0.1h0.6l0.4-0.1l0.4-0.1l2.2-0.9
	l3-1l1.3-0.2l0.1-0.3h1l0.2-0.2h0.9l0.3-0.2c0,0,0.7,0,0.8,0c0.1,0,0.3-0.3,0.3-0.3l0.3-0.1h0.6l0.1,0.1l0.1,0.3h0.3l0.2-0.2
	l0.3-0.1l0.2-0.1h0.8l0.4,0.3l0.5,0l0.2,0.2l0.2,0.1l0.3-0.1v-0.2l1.2,0V15l1,0l0.2,0.4l0.2,0.5l0.4,0.5l0.5,0.7l0.4,0.6l0.4,0.5
	l0.1,0.5l0.1,0.1V19l-0.2,0l-0.1,0.5l-0.2,0.1l0,0.6l0.3,0.2l-0.3,0.4l-0.2,0.5l-0.4,0.5l-0.5,0.3l-0.3,0.3l-0.1,0.3l-0.1,0.2
	l-0.1,0.2l0,0.2l-0.1,0.3l-0.2,0v0.4l-0.3-0.1l0-0.4l-0.1-0.1v-0.2l-0.4,0.1l-0.1,0.3l-0.2,0.1l0,0.3l-0.2-0.1l-0.1-0.2l-0.2-0.1
	l-0.1-0.1l-0.3-0.1l-0.1,0l-0.1,0.2l-0.3,0l-0.1,0.2l-0.3,0.1l-0.3,0.1l-0.1,0.1l-0.3,0l-0.2,0.1l-0.2,0.2h-0.7l-0.1,0.8h-0.3
	l-0.2-0.2l-0.2-0.2l-0.5,0l-0.1-0.1l-0.8-0.1l-0.1-0.2l-1.1,0l-0.2,0.2l-1.3,0l-0.1,0.2l-1.3,0l-0.1,0.2h-0.7l-0.2,0.1l-0.6,0.1
	l-0.2,0.2l-0.4,0.1l-0.5,0.2l-0.2,0.2l-0.3,0.1l-0.1,0.2l-0.2-0.2l-1,0.1l-0.1,0l-0.2,0.1l-0.1,0.3l-0.3,0.2l-0.1,0.2h-0.2l-0.1-0.3
	l-1.1,0.1l-0.1,0.2h-0.8l0,0.3h-0.2l0-0.2l-0.7-0.1l-0.1-0.2l0-0.1l-1.2,0l-0.4,0v-0.2l-0.8,0.1l0-0.4l-0.2-0.3l-0.2-0.2l-0.3-0.2
	l-0.1-0.3l-0.3-0.3L369.6,24.3z"/>
<path class="st9" d="M365.7,29.2h0.2V29h0.3l0.1,0.2l0.3,0.2c0,0,0.7,0.2,0.8,1l0.2,0.1v1l-0.2,0.1l-0.1,0.6l-0.1,0.3l-0.4,0.6
	l-0.2,0.6l-0.2,0.4h-0.1l0,0.4l-0.2,0.2l-0.1,1l-0.3,0.4l-0.6,1.7l-0.8,1.6v0.1l-0.7,1.3l-0.7,1.5l-0.2,0.4l-0.4,0.6l-0.2,0.2v0.5
	l-0.2,0.8l-0.3,0.7l-0.3,0.6l-0.2,0.5l-0.3,0.6l-0.3,0.5l-0.1,0.3l-0.1,0.4l-0.1,0.1l0.1,0.1h0.4l0.2-0.1l0.4-0.1l0.6-0.4l0.6-0.2
	l0.7-0.6l1.8-1.4l0.5-0.2l0.3-0.2l0.4-0.1l1.6-1.1l3.4-2.3c0,0,3.4-1.9,5.2-2.5l0.2,0l0.2-0.2h0.9v-0.3h0.4l0.3-0.1l0.2-0.1h0.8h0.4
	l0.2-0.2h1.1h0.2l0.1,0.4l0.4,0.4c0,0,0.4,0.5,0.6,1.6l0.1,0.3v1.2v1.1l-0.2,0.1l-0.2,0.5l-0.3,0.4l-0.1,0.2l0,0.3l-0.3,0.1l0,0.6
	l-0.4,0.3l-0.8,0.5l-0.2,0.2l0,0.2h-0.4l-0.1,0.3l-0.4,0.1l-0.4,0.3l-0.4,0.3l-0.3,0.4l-0.1,0.3l-0.4,0.1l-0.3,0.1l-0.2,0.1
	l-0.1,0.3l-0.3,0.1l-0.8,0.6l-0.5,0.6l-0.2,0.4l-0.2,0.1l0,0.3l-0.9,0.1l-0.1,0.6l-0.1,0.5l-0.2,0.2l0,0.4l-0.3,0.4l-0.2,0.4
	l-0.2,0.1l-0.1,0.3l-0.1,0.3l-0.3,0.3l-0.1,0.3l-0.1,0.1l0,1l-0.2,0.1h-0.5v0.2h-0.2v0.9l-0.1,0.1l0,0.4h-0.2l-0.1,0.3l-0.1,0.3
	l-0.2,0.1l-0.1,0.4l0,0.5l-0.1,0.2l-0.2,0.3l-0.3,0.4l-0.3,0.5l-0.3,0.7l-0.7,1l-0.5,1.3l-0.1,0.1l-0.1,0.4l-0.2,0.3l-0.2,0.4
	l-0.1,0.3l-0.1,0.5l-0.2,0.5l-0.1,0.2l-0.4,1.2l-0.5,1.1l-0.1,0.6l-0.2,0.2l-0.1,0.2l-0.1,0.3l-0.2,0.4l-0.2,0.2l-0.3,0.5l0.1,0.3
	l-0.2,0.2l0,1.1l-0.2,0.2l-0.1,0.3l-0.2,0.5l-0.2,0.2l-0.2,0.2l-0.2,0.4l0,0.6l-0.2,0.3l-0.1,0.7c0,0-0.2,0.2-0.2,0.1
	c0,0,0,0.4,0,0.4l-0.2,0.4l-0.1,0.7l-0.1,0.5h-0.2l0,0.5l-0.2,0.2l-0.2,0.3l-0.1,0.2h-0.3l0,0.4l-0.1,0.3l-0.1,0.7l-0.1,0.2l0,0.3
	l-0.2,0.1l0.2,0.2h0.4l0.1-0.3l0.4-0.2l0-0.1l0.2,0v0.2l0.4,0.1l0.7,0l0.2-0.2l0.3-0.1l0-0.1l0.4-0.1l0.1-0.2l0.8,0l0-0.4l1.7,0
	l0.2,0l0-0.2l2,0l0.1-0.2h1l0.1-0.2h0.6l0.1-0.1h0.5l0-0.2L372,80l0.1-0.2h1l0.1-0.2l0.2,0l0.1,0.2l1.1,0l0.1-0.2l0.2,0l0.2,0l0-0.1
	h1.4l0.1,0.2l1.4,0.1L378,80l0.4-0.1l0.2-0.2l0.6,0l0.1-0.2l0.8-0.1v0.2l1.2,0l0-0.2l1.2,0v-0.2l0.3,0l1,0l0.2,0l0.1-0.2l1.5,0.1
	l0.1,0.4l0.1,0.2l0.3,0.1l0.2,0.3l0.2,0.1l-0.1,0.7l-0.2,0.1l-0.2,0.3l-0.3,0.1l-0.1,0.2h-0.3l-2.3,0l-0.3,0.2l-0.6,0.1l-0.4,0.1
	l-0.4,0.1l-0.3,0.1l-0.2,0.1l-0.1,0.2l-0.4,0.1l-0.3,0.1l-0.3,0.1l-0.3,0.2l-0.1,0.6c0,0-0.3,0.9-1.4,1.5l-0.4,0.3l-0.5,0.2
	l-0.2,0.2h-0.5l-0.1,0.3l-0.8,0.1l-0.1,0.1l-0.2,0.2l-0.1,0.2l-0.3,0.1h-0.4l-0.1,0.2h-0.7l-0.2,0.2h-0.4l-0.1,0.2h-0.8l-0.1,0.2
	l-0.7,0.1l0,0.2l-0.7,0.1l-0.1,0.1l-0.7,0.1l-0.6,0.2l-0.1,0.2h-0.5l-0.1,0.2H368l0,0.2l-0.5,0.1l0,0.2h-0.3v0.1l-0.2,0.1v-0.2h-0.5
	l0,0.2h-0.6l-0.1,0.2l-0.4,0.1l-0.2,0.1l-0.4,0.1l-0.3,0.1l-0.2,0.2H364v0.2h-0.2l0,0.2l-1.6,0.1l0,0.1l-0.3,0.1l0,0.2l-0.1,0.1
	l-0.1,0.2h-0.6l-0.1,0.2l-0.8,0.1l-0.2,0.2h-0.3l-0.1,0.2h-0.2l-0.2,0.2l-0.2,0.1l-0.3,0.1v0.2l-0.4,0.2l-0.1,0.3l-0.3,0.1l-0.1,0.3
	l-0.3-0.1V93l-0.2,0.1l-0.1,0.2l-0.4,0.4l-0.5,0.4l-1,0.8l-0.1,0.1l-0.4,0.1l-0.1,0.2l-0.3,0.1v0.2H354l-0.1,0.2h-0.2l-0.1-0.2
	l-0.8,0l-0.1,0.2l-0.3,0.1l-0.1,0.1l-0.5,0.1l-0.2,0.1l-1.2,0.1l-0.1,0.5l-0.2,0.2L350,97l-0.7,0.1l-0.2,0.2h-0.4v0.2h-0.3v-0.1
	l-0.2,0v0.1l-0.3,0.2l-0.2,0.1l-0.4,0.2l-0.1,0.1h-0.1l-0.2,0.2h-0.6l0.1,0.2l-0.5,0.1l-0.1,0.2l-0.4,0.3l-1,0.8l-0.3,0.1l-0.5,0.2
	l-0.5,0.5l-0.9,0.5l-0.3,0.4l-1,1l-0.1,0.4v0.4l-0.2,0.1l-0.1,0.3l-0.2,0.3l-0.5,0.3l-0.3,0.5l-0.2,0.1v0.3l-0.2,0.2H338l-0.2,0.3
	h-0.5l-0.2,0.3l-0.2,0.2l-0.1,0.2v0.2h-0.3l-0.1-0.1l-0.2-0.2l-0.2,0V106l-0.5-0.1v-0.2l-0.3,0l-0.1-0.1h-0.3l-0.1,0.2l-0.2,0
	l-0.3,0.1l-0.1-0.1v-0.6l-0.3-0.1v-0.3l-0.2-0.2l-0.4-0.3h-0.4v-0.2l-1.5,0V104l0.3,0l0-0.6l-0.3-0.1l-0.2-0.3l-0.2-0.2l-0.1,0v-0.3
	l-0.1-0.2h-0.3v-0.6l0.2,0l0.2-0.3l0.2-0.2l0.1-0.3l0.2-0.1l0-0.6l0.1-0.1l0-1.3l0.1,0L332,98c0,0,0.6-0.8,0.9-0.9l0.3,0l0.2,0
	l0-0.2h0.2l-0.1-0.2l-0.4-0.2l0.1-0.5l0.1-0.1l0.2-0.3l0.3-0.2l0.3-0.3l0.9,0l0.1-0.3l0.1-0.2l0.1-0.5L336,94c0,0,0.8-1.1,1.3-1.3
	l0.2-0.1l0.7-0.1l0-0.6l0.2-0.2l0.2-0.3l0.2-0.3l0.1,0l0.1,0.2l0.3,0l0-0.2h0.4l0.1-0.5l0.7-0.1l0.1-0.4l0.4-0.3l0.3-0.5l0.3-0.1
	l0.8,0l-0.1,0.1l0.8,0l0.1-0.3l0.2-0.2l0.1-0.3l0.2-0.2l0.1-0.2l1.5,0.1l0.2-0.2l0.1-0.6l0.2-0.3l0.3-0.1l0.4,0.2l0.1-0.2h1.5
	l0.3-0.1l0.4-0.2l0.2-0.3l0.2-0.2l0-0.5l0.3-0.1l0.2,0.2v0.2l0.1,0.1l0.6-0.1l0-0.2l0.5-0.1l0.3-0.4l0.2,0l0.4-0.1l0.1-0.2h0.2
	l0,0.1l0.1,0.1l0.3,0l0-0.2l0.1-0.1l0-0.1l1.1-0.1l0.3-0.3l0.3-0.5l0.2-0.3l0.2,0l0,0.6l0.2,0l0.1-0.2l0.2-0.1l0.1-0.5l0.1-0.2
	l0.2-0.8l0.1-0.2l0.1-0.7l0.1-0.6l0.2-0.2l0-0.7l0.3-0.2l0-0.7l0.1-0.3l0.1-0.7l0.1-0.6l0.1-0.1v-0.6l1.6-5.8l2.9-9.3l0.2-1l0.6-1.6
	l0.6-1.1l0.1-0.6l0.3-0.6l0.4-0.3l0.1-0.3l-0.1-0.4l-0.3,0.1l-0.3,0.3l-0.2,0.2l-0.3,0.1l-0.1,0.1l-0.4,0.1l-0.2,0.1l-1.2,0.1
	l-0.2,0.2l-0.7,0.1l-0.2,0.1l-0.1,0.2l-0.6,0l0-0.1l-0.1-0.1l-0.7,0l0-0.2l-0.6,0l-0.1-0.2l-0.4,0l-0.1,0.2l-0.7,0l-0.2-0.1
	c0,0-2.2-1.9-3.3-4.2l0.1-0.2l-0.1,0l0-0.9l-0.2-0.1l0-0.9h0.2l0.1-1.2l0.1-0.4L353,49l0-0.2c0,0,1.2-2.6,1.6-3.5l2.4-4.2l2.5-4.4
	l1-1.7l0.2-0.3l0.2-0.3l0.3-0.4l0.3-0.4l0.3-0.3l0.3-0.3l0.2-0.3l0.3-0.3l0.1-0.2l0.1-0.7l0.3-0.2l0.9-0.8l0.7-0.4l0.5-0.2l0.2-0.3
	l0.2-0.1l0.2,0.1L365.7,29.2z"/>
<path class="st9" d="M467.7,22.3l-0.2,0v-0.4c-0.3-1.5-1.8-1.9-1.8-1.9l-0.6,0l-0.2,0.2l-0.8,0l-0.1,0.2h-0.2v-0.1l-0.9-0.1
	l-0.2,0.2l-0.3,0.2c0,0-0.4,0.1-0.5,0c-0.1,0,0-0.2,0-0.2l-0.2,0l-0.2,0.9l-0.4,0.8l-0.6,0.5l-0.4,0.6v0.4l-0.4,0.2l-0.3,0.3l-0.5,0
	l-0.3,0.7l-0.6,0.5l-0.5,0.9l-1,0.9l-0.4,0.2v0.3l-0.4,0.5l-1.3,2l-1.3,1.9l-1.7,2.6l-1.3,1.8l-0.5,0.7v0.6l-0.2,0.1l-0.4,0.2V38
	c-0.5,1-2.4,2.4-2.4,2.4l-3.1,2l-2,1.2l-1.4,0.9l-2.1,1.6l-0.3,0.4l-0.4,0.2l-5.5,3.7l-7.2,5.5l-4.3,3.1l-1.1,0.9l-0.5,0.3l-0.3,0.2
	c-1,0.4-3.4,2.8-3.4,2.8l-0.3,0.3h-0.3l0.1-0.3l0.4-0.6l0.5-1l0.5-1.1c0.5-0.7,1.1-2.2,1.1-2.2l0.3-1.6l0.2-0.4l0.2-0.5l0.3-1.3
	l0.2-0.9l0.1-0.1v-2.2c-0.2-1.4-1.6-2-1.6-2l-0.2-0.2v-0.3h0.2l0.1-0.3l0.2-0.3c0.7-1.2,1.4-2.8,1.4-2.8l-0.1-0.9h0.2l0.1-0.4h-0.2
	l0-0.7c-0.1-0.8-1.8-2-1.8-2l-0.3-0.2l-0.1-0.2l0.2-0.2l0.2-0.1l0.9-0.1l0.1,0.3h0.5l0.1-0.2l0.9-0.1l1-0.2h0.3l0.7-0.2l0.8-0.1
	l0.3-0.2l0.7-0.2l0.4-0.1l0.8-0.1l1-0.1l1.4-0.1l0.2-0.2l2.4,0v-0.2l0.3-0.1l0.2-0.2h0.4l0.1,0.2l0.4,0.1l0,0.2l0.4,0.2l0.7,0.5
	l0.1,0.2l0.4,0.2l0.3,0.2h1l0-0.2l0.7-0.1v0.3h0.6l0-0.2l0.1-0.2l0.1-0.2h0.1l0.1-0.4l0.2-0.5l0.1-1.2c-0.2-1.3-1.8-1.8-1.8-1.8
	l-0.8,0l-0.1,0.2l-0.5,0.1l-0.3-0.2h-0.5l0-0.1l-0.6-0.1l-0.1-0.1l-0.8-0.1l-0.1-0.2h-0.9l-0.2-0.1l-0.8,0l-0.8-0.1l-2.4-0.1
	l-0.2-0.1l-3.3,0l-0.2,0.2l-2.4,0l-0.2,0.2l-1.4-0.1l-0.2,0.2l-0.8,0v0.2l-1.2,0v-0.2l-0.2-0.1l0,0.3l-0.6-0.1l-0.1-0.3l-0.3,0.1
	l-0.2,0.2l-0.5-0.1l-0.2,0.2l-0.6,0l-0.1,0.2l-1,0l0,0.2l-0.2,0.1l-0.8,0l0,0.2h-0.7l-0.1,0.2l-0.4,0.1l-0.3,0.2l-0.2,0.2h-0.3
	l-0.2,0.1l-0.3,0l-0.2-0.2l-0.4,0l-0.1,0.2l-0.3,0.2l-0.3,0l-0.1,0.3l-0.4,0.1l-0.2,0.1l-0.4,0.1l-0.2,0.1H405h-0.6v-0.5l0.2-0.1
	v-0.3h0.1v-0.3l0.1-0.2l0.5-1.1l0.4-1c0.9-1.7,2.7-3.9,2.7-3.9l1.7-1.7c0.2-0.3,1.8-1.5,1.8-1.5l1.1-0.8l0.6-0.2l0.3-0.1l0.3-0.2
	l0.4-0.1l0.4-0.1l0.5-0.2l0.5-0.1l0.2-0.2h0.3l0.4-0.3l0.8-0.2l0.4-0.1l0.3-0.2l0.2-0.2l0.4-0.2l0.3-0.2l1.1-1l0.4-0.3l0.3-0.2
	l2.3-2.1l1.6-1.5l2.3-2l1.9-1.7l1-0.9l0.3-0.2l0.2-0.1l0-0.7l0.2-0.4l0.4-0.5l0.3-0.4l0.3-0.3l0.1-0.6l0.4-0.6l0.1-0.8l0.2-0.2
	l0.4-0.3h0.3h0.3l0.1-0.2l-0.2-0.3c0-1.6-1.2-3.8-1.2-3.8c-1-1.9-2.6-2.8-2.6-2.8h-0.3c-0.5,0.1-4.5,3.5-4.5,3.5l-4,3.6v0.5
	l-0.3,0.4l-0.3,0.1l-3.5,4l-1.8,1.9l-1.7,2.3l-0.5,0.9l-2.5,3.1l-0.3,0.5l-0.1,0.5h-0.1l0,0.6l-0.3,0.1c-0.7,0.5-3.9,6.5-3.9,6.5
	l-1,2.4l-0.5,0.6c0,0,0,0.1-0.4,0.5c0,0,0,0-0.1,0.1c-0.4,0.6-0.7,2.5-0.7,2.5l-0.2,0.5l-0.2,0.2l-0.1,1l-0.7,0.6l-1.1,0.9l-0.4,0.4
	l-0.1,0.3h-0.6l-0.6,0.4l-1,0.7l-0.3,0.4h-0.6l-0.4,0.2l-0.4,0.2c-0.6,0.2-2,1.6-2,1.6l-0.2,0.2l-0.2,0l-0.1-0.2l-0.4,0l-0.1,0.1
	l-0.1,0.6l-0.2,0.2l-0.4-0.1v-0.2l-0.2-0.1l0,0.4l-0.2,0.2v0.6l-0.6,0.1c-0.7,0.3-1.2,1.4-1.2,1.4L390,47l-0.3-0.1l-0.4,0.1
	l-0.2,0.4l-0.3,0.4l-0.3,0.6l-0.4,0.5l-0.7,0c-0.6,0.1-0.6,0.8-0.6,0.8v0.4l-0.6,0.1v0.1l0.2,0v0.1l0.2,0.2l0.3,0.2v0.2l0.2,0.2V52
	l0.2,0.1v1.5l0.1,0.1v0.8l0.2,0.2l0.2,0.3l0.4,0.2l0.1,0.1l0.6,0l0.2-0.2l0.5-0.1c0.8-0.3,1.8-1.5,1.8-1.5l0.9-0.8l0.6-0.3l0.9-0.6
	l2-1.1l0.5-0.5l0.3-0.2l0.1-0.3l0.8,0v-0.2l0.2-0.3l0.2-0.3l0.4-0.1l0.4-0.4l0.7-0.5l0.5-0.3l0.5-0.2l0.4-0.3l0.8-0.1l0.3-0.4
	l0.2-0.3l0.7-0.1l0.2-0.1l0-0.4l0.1-0.1l0.1-0.2l0.2-0.2l0.4-0.1l0.1-0.1l0.5-0.2l0.8-0.4l3.3-1.4l0.1-0.2h0.4l0.2,0.5l0.3,0.4v0.3
	l-0.2,0.3l-0.7,0.6l-2.3,1.9l-4.2,4.2c-0.9,0.8-2.8,3.1-2.8,3.1l-0.2,0.7l-0.1,0.4l-0.1,1.3l0.3,0.1v0.8l0.2,0.1V58v0.8
	c0.3,0.9,2,1.4,2,1.4l2.8-0.1L404,60l0.8,0l0.3-0.1l0.9-0.1l0.7-0.4l0.1-0.2l0.7,0l0-0.1l0.3-0.2l0.4-0.2l0.4-0.4l1.7-1.2l0.3-0.3
	l0.5-0.1v0.3l-0.2,0.3l-0.3,0.3l-0.3,0.6l-0.5,0.9l-0.7,1.4l-0.9,1.5c-0.2,0.2-2.2,3.9-2.2,3.9l-3.6,6.5l-2.6,4.2l-0.3,0.6l-0.2,0.2
	v2.3h0.2v0.7c0.2,0.7,1.2,1.8,1.2,1.8l0.3,0.3l0.1,0.2h0.2l0.2-0.3h0.3l0.4-0.2l0.3-0.2l0.2-0.2l0.3-0.2l0.3-0.2v-0.1l0.6-0.7l1.3-1
	l0.6,0l0.4-0.2l0.1-0.3l0.6-0.5l1-1l0.6-0.3l0.3-0.2l0.5-0.3l0.1-0.3l0.6-0.6l0.5-0.7l2.4-2.1l1.1-1.1l0.1-0.4l0.6-0.1l0.4-0.3
	l0.2-0.3l0.2-0.5l1.7-1.4l0.6-0.3l0-0.3l0.7-0.1l0.2-0.5l0.1-0.3l0.4-0.3c0.2-0.3,5.5-4,5.5-4l2.4-1.5l0.7-0.3l0.5-0.1l0.6-0.3
	l0.6-0.9l3-2.7l1.3-1.1l1.4-1.2l0.4-0.5l0.7-0.9l2-2.1l0.9-1l0.4-0.4l0.3-0.3l1.4-1.3l2.5-2.1l0.3-0.3l0.3,0l-0.1,0.3l-0.7,1
	l-0.9,1.8l-1.2,2.3l-1.7,3.2l-0.5,1.2l-1,1.9l-0.8,1.5l-2,4.2l-0.2,0.2l0,1l-0.1,0.2l-0.4,0.6l-0.5,1.5l-0.8,1.7l-0.5,1.2l-0.1,0.4
	l-0.2,0.4l-0.1,0.2l-0.2,0.4l-0.1,0.4l-0.2,0.7l-0.5,1.1l-0.5,1l-0.1,0.4V76l-0.5,0.5l-0.3,0.6l-0.2,0.6l-0.2,0.9l-0.4,1.1l-0.2,1
	l-0.2,0.7l-0.6,2.1l-0.1,0.4l-0.4,1l-0.1,1c0,0-0.4,1.4-0.4,1.4c0,0.1-0.7,1.6-0.7,1.6l-0.3,0.5l-0.1,0.5l-0.1,0.9l-0.3,1.2
	l-0.1,0.7l-0.2,0.8l-0.4,2l-0.4,1.3l-0.1,0.7l-0.2,0.6l-1.2,5.1l-0.2,1.2l-0.2,0.9l-0.2,0.2v1.1l-0.2,0.4l-0.1,1.1l-0.2,1.4
	l-0.6,3.3l-0.3,0.9l-0.1,0.3l-0.2,0.9l-0.1,0.9l-0.1,0.5l-0.1,0.5l-0.2,0.3l-0.1,0.5v0.2l-1.3,6.3l-0.2,0.1l-0.1,0.8l-0.2,0.4
	l-0.1,0.7l-0.1,0.8l-0.1,0.2l-0.1,0.9l-0.2,0.7l-0.1,0.2l-0.1,0.7l-0.1,0.2l-0.1,0.9l-0.1,1l-0.2,0.1l-0.1,1l-0.2,0.1v0.9l-0.1,0.1
	l-0.2,0.8l-0.1,0.4l-0.1,1.2l-0.1,0.2l0,1.1l-0.2,0.1l0,1.4h0.5l0.2-0.2l0-0.8h0.2l0.1-0.6l0.1-0.2l0.1-0.4l0.1-0.1l0.1-0.6l0.1-0.3
	l0.1-0.3l0.1-0.3l0.4-0.7l0.1-0.6l0.2-0.7l0.1-0.2l0-0.5h0.2l0-0.6l0.2-0.2l0.1-0.4l0.2-0.4l0-0.6h0.2l0.1-0.2l0.2-0.3l0.1-0.7
	l0.4-0.7l0.2-0.5l0.1-0.7l0.3-0.6l0.1-0.5l0.5-1.2l0.2-0.6l0.2-0.5l0.2-0.6l0.3-0.3l0-0.5l0.1-0.6l0.4-0.6l0.3-0.8l0.2-0.6l0.1-0.4
	l0.1-0.1l0.1-0.5l0.2-0.8l0.2-0.3l0.3-0.2l0.1-0.2l0.4-0.2l0.1-0.9h0.1l0-0.5l0.1-0.2l0.1-0.4h0.1l0-0.6l0.3,0v0.2h0.2l0.1-0.3
	c0.6-0.4,1-1.4,1-1.4l0.2-0.4l0.1-0.7l0.2-1.1l0.2-0.4l0.2-0.6l0.2-0.5l0.4-1l0.4-0.2l0.4-0.4l0.3-0.3v-1.3l0.2-0.6l0.8-1.6l0.6-1.4
	l0.2-0.9l0.1-0.4l0.1-1.1l0.2-0.1l0.2-0.6l0.2-0.7l0.1-0.1l0-0.1l0.9-3.3l1-3.5c0.5-2,1.9-6.7,1.9-6.7l0.3-1.1l0.4-0.7l0.2-0.4
	l0.4-1.4l1.4-4.2l1.6-4.9l1.1-2.4L443,69l0.3-0.6l0.3-0.4l0.1-0.4l0.3-0.7l0.7-1.6l1.7-4.2c1.2-3.1,4.1-8.8,4.1-8.8l4.8-9.6l2.3-4.1
	l0.4-0.9l0.5-0.5l0.1-0.7l0.4-0.6l0.5-0.4l0.2-0.5l0.2-0.5l0.2-0.4l0.2-0.2l0.4-0.1l0-0.2l0.2,0l0-0.4l0.1-0.4l0.3-0.1l0.1-0.3
	l0.4-0.6l1.4-1.4l0.2-0.4l0.2-0.4l0.3-0.2l0-0.5l0.2-0.3l0.2-0.3l0.3-0.2l0.4-0.2l0-0.7l0.2-0.1l0-0.4l0.3-0.3l0.2-0.6l0.2-0.1
	c1.8-1,1.5-1.9,1.5-1.9l0.2-0.1V22.3z M410.9,49.9l-0.8,0.7l-2.3,2.4l-1.4,1l-0.5,0.2l-0.3,0.3l-0.3,0.1l0.1-0.3V54l0.3-0.1l0.1-0.6
	l0.3-0.4l0.3-0.1l0.9-0.9l1.6-1.3l0.8-0.6l0.6-0.5l0.6-0.5c0.2-0.1,0.2,0.1,0.2,0.1L410.9,49.9z"/>
</svg>
